<svg width="67" height="67" viewBox="0 0 67 67" fill="none" xmlns="http://www.w3.org/2000/svg">
<g clip-path="url(#clip0)">
<path d="M42.7645 5.15207L41.5862 2.20638H41.5747C41.5742 2.15809 41.5623 2.1106 41.54 2.06776C41.1357 0.912586 37.6933 0 33.5 0C29.3068 0 25.8643 0.912586 25.46 2.06776C25.4377 2.1106 25.4259 2.15809 25.4254 2.20638L24.2355 5.15207C16.7385 6.07621 11.5518 8.08621 11.5518 10.3966V61.2241C11.5518 64.4124 21.3823 67 33.5 67C45.6178 67 55.4483 64.4124 55.4483 61.2241V10.3966C55.4483 8.08621 50.2616 6.07621 42.7645 5.15207Z" fill="#3F5C6C"/>
<path d="M55.4483 10.3966C55.4483 13.5848 45.6178 16.1724 33.5 16.1724C21.3823 16.1724 11.5518 13.5848 11.5518 10.3966C11.5518 8.08621 16.7385 6.07621 24.2355 5.15207L23.1728 7.79741C23.1153 7.90779 23.1029 8.03616 23.1381 8.15552C23.5424 9.4031 28.0361 10.3966 33.5 10.3966C38.964 10.3966 43.4576 9.4031 43.8619 8.15552C43.8972 8.03616 43.8848 7.90779 43.8273 7.79741L42.7645 5.15207C50.2616 6.07621 55.4483 8.08621 55.4483 10.3966Z" fill="#3D4E57"/>
<path d="M55.4483 26.569V32.3448C55.4483 35.5331 45.6178 38.1207 33.5 38.1207C21.3823 38.1207 11.5518 35.5331 11.5518 32.3448V26.569C11.5518 29.7572 21.3823 32.3448 33.5 32.3448C45.6178 32.3448 55.4483 29.7572 55.4483 26.569Z" fill="#3F5C6C"/>
<path d="M55.4483 10.3966V26.569C55.4483 29.7572 45.6178 32.3448 33.5 32.3448C21.3823 32.3448 11.5518 29.7572 11.5518 26.569V10.3966C11.5518 13.5848 21.3823 16.1724 33.5 16.1724C45.6178 16.1724 55.4483 13.5848 55.4483 10.3966Z" fill="#3F5C6C"/>
<path d="M41.5862 2.31034C41.5862 3.59259 37.9821 4.62069 33.5115 4.62069H33.5C29.0295 4.62069 25.4138 3.59259 25.4138 2.31034C25.4119 2.27529 25.4158 2.24017 25.4253 2.20638C25.4258 2.15809 25.4377 2.1106 25.46 2.06776C25.8643 0.912586 29.3067 0 33.5 0C37.6933 0 41.1357 0.912586 41.54 2.06776C41.5623 2.1106 41.5742 2.15809 41.5747 2.20638C41.5842 2.24017 41.5881 2.27529 41.5862 2.31034Z" fill="#BDC3C7"/>
<path d="M43.8619 8.15552C43.4576 9.40311 38.964 10.3966 33.5 10.3966C28.036 10.3966 23.5424 9.40311 23.1381 8.15552C23.1028 8.03617 23.1153 7.90779 23.1727 7.79742L24.2355 5.15207L25.4253 2.20638C25.4158 2.24017 25.4119 2.27529 25.4138 2.31035C25.4138 3.59259 29.0295 4.62069 33.5 4.62069H33.5115C37.9821 4.62069 41.5862 3.59259 41.5862 2.31035C41.5881 2.27529 41.5842 2.24017 41.5746 2.20638H41.5862L42.7645 5.15207L43.8272 7.79742C43.8847 7.90779 43.8971 8.03617 43.8619 8.15552Z" fill="#7F8C8D"/>
<path d="M33.8542 28.8472L28.0742 40.8465H30.9052L25.1252 52.1111L38.5724 37.5406H34.7978L41.8752 28.8472H33.8542Z" fill="#EBAC40"/>
</g>
<defs>
<clipPath id="clip0">
<rect width="67" height="67" fill="white"/>
</clipPath>
</defs>
</svg>
