<svg width="259" height="150" viewBox="0 0 259 150" fill="none" xmlns="http://www.w3.org/2000/svg">
<path fill-rule="evenodd" clip-rule="evenodd" d="M136.166 149.94C83.6404 150.654 22.7211 145.423 5.09566 111.42C-13.5537 75.4409 21.6642 38.8451 67.2538 16.9926C109.857 -3.42843 165.927 -6.70184 208.149 14.0897C251.187 35.2835 270.298 73.8734 252.184 108.059C235.662 139.24 184.454 149.283 136.166 149.94Z" fill="#FAFAFA"/>
<path d="M126.349 48.5145L125.779 44.855C125.662 44.1012 126.158 43.388 126.907 43.2333C130.266 42.5399 130.116 42.5849 130.313 42.4979L132.973 41.3268C133.774 40.9749 134.702 41.4125 134.936 42.2526L135.996 46.0483C136.063 46.29 136.193 46.51 136.373 46.6863L137.748 48.0325C138.431 48.7013 138.279 49.8373 137.444 50.3039L134.491 51.954L131.824 53.2724C131.253 53.5547 130.564 53.4277 130.132 52.9605L126.713 49.2659C126.519 49.0569 126.393 48.7956 126.349 48.5145Z" fill="#A7F3D0"/>
<path d="M164.846 62.7567C164.846 70.461 158.585 76.7068 150.861 76.7068C143.138 76.7068 136.877 70.461 136.877 62.7567C136.877 55.0525 143.138 48.8066 150.861 48.8066C158.585 48.8066 164.846 55.0525 164.846 62.7567Z" fill="#059669"/>
<path d="M137.083 65.9509L139.092 97.2098C139.185 98.6614 140.393 99.7912 141.852 99.7912H159.872C161.33 99.7912 162.537 98.6614 162.631 97.2098L164.641 65.9509H137.083Z" fill="#064E3B"/>
<path d="M164.188 68.3042H137.535C136.176 68.3042 135.075 67.2052 135.075 65.8498C135.075 64.4943 136.176 63.3953 137.535 63.3953H164.188C165.547 63.3953 166.648 64.4943 166.648 65.8498C166.648 67.2052 165.547 68.3042 164.188 68.3042Z" fill="#065F46"/>
<path d="M150.861 48.8066C148.597 48.8066 146.457 49.3447 144.565 50.2983V55.3514C144.565 58.8205 147.384 61.6324 150.861 61.6324C154.339 61.6324 157.158 58.8205 157.158 55.3514V50.2983C155.265 49.3447 153.127 48.8066 150.861 48.8066Z" fill="#10B981"/>
<path d="M96.5949 99.6131C94.5039 98.9671 93.3342 96.7525 93.9818 94.6666L99.208 77.8337L99.7363 65.2279C99.8284 63.0459 101.675 61.3508 103.862 61.4427C106.049 61.5339 107.748 63.3763 107.656 65.5583L107.106 78.6775C107.092 79.019 107.033 79.3561 106.932 79.6822L101.554 97.0058C100.908 99.0849 98.6921 100.261 96.5949 99.6131Z" fill="#047857"/>
<path d="M116.962 96.3703L114.42 77.7455L108.711 63.1772C107.914 61.1437 108.921 58.8508 110.96 58.0556C112.999 57.2605 115.298 58.2652 116.094 60.2987L121.975 75.3058C122.089 75.5974 122.168 75.9019 122.21 76.2119L124.815 95.3039C125.111 97.4674 123.592 99.4602 121.423 99.7542C119.25 100.049 117.256 98.5295 116.962 96.3703Z" fill="#065F46"/>
<path d="M117.969 65.0811H99.7482V40.4324C99.7482 37.7789 101.905 35.6277 104.564 35.6277H113.153C115.813 35.6277 117.969 37.7789 117.969 40.4324V65.0811Z" fill="#059669"/>
<path d="M117.135 26.1119C117.135 30.0395 113.943 33.2238 110.006 33.2238C106.068 33.2238 102.876 30.0395 102.876 26.1119C102.876 22.1843 106.068 19 110.006 19C113.943 19 117.135 22.1843 117.135 26.1119Z" fill="#F5A990"/>
<path d="M129.794 55.1868L116.193 54.6253C115.303 54.5889 114.469 54.1797 113.896 53.4992L104.795 42.6877C103.67 41.3496 103.844 39.3549 105.185 38.2312C106.526 37.1082 108.526 37.282 109.652 38.6196L117.853 48.3628L130.057 48.8664C131.806 48.9391 133.165 50.4123 133.093 52.1573C133.021 53.9011 131.545 55.2596 129.794 55.1868Z" fill="#F5A990"/>
<path d="M114.12 43.9279L109.652 38.6196C108.526 37.282 106.526 37.1082 105.185 38.2312C103.844 39.3549 103.67 41.3496 104.795 42.6877L109.257 47.9881L114.12 43.9279Z" fill="#10B981"/>
<path d="M85.264 134.192C83.664 134.192 82.28 133.848 81.112 133.16C79.944 132.456 79.04 131.456 78.4 130.16C77.776 128.848 77.464 127.304 77.464 125.528C77.464 123.768 77.776 122.24 78.4 120.944C79.04 119.632 79.944 118.632 81.112 117.944C82.28 117.24 83.664 116.888 85.264 116.888C86.336 116.888 87.344 117.064 88.288 117.416C89.248 117.752 90.08 118.24 90.784 118.88C91.04 119.12 91.168 119.4 91.168 119.72C91.168 119.944 91.104 120.144 90.976 120.32C90.848 120.48 90.696 120.56 90.52 120.56C90.328 120.56 90.096 120.472 89.824 120.296C89.008 119.656 88.264 119.208 87.592 118.952C86.936 118.696 86.176 118.568 85.312 118.568C83.456 118.568 82.024 119.176 81.016 120.392C80.024 121.592 79.528 123.304 79.528 125.528C79.528 127.768 80.024 129.496 81.016 130.712C82.024 131.912 83.456 132.512 85.312 132.512C86.16 132.512 86.92 132.384 87.592 132.128C88.264 131.872 89.008 131.424 89.824 130.784C90.096 130.608 90.328 130.52 90.52 130.52C90.696 130.52 90.848 130.6 90.976 130.76C91.104 130.92 91.168 131.12 91.168 131.36C91.168 131.68 91.04 131.96 90.784 132.2C90.08 132.84 89.248 133.336 88.288 133.688C87.344 134.024 86.336 134.192 85.264 134.192ZM95.0262 134.12C94.7382 134.12 94.4982 134.04 94.3062 133.88C94.1302 133.704 94.0422 133.464 94.0422 133.16V123.032C94.0422 122.728 94.1302 122.496 94.3062 122.336C94.4982 122.16 94.7382 122.072 95.0262 122.072C95.3142 122.072 95.5462 122.16 95.7222 122.336C95.8982 122.496 95.9862 122.728 95.9862 123.032V133.16C95.9862 133.48 95.8982 133.72 95.7222 133.88C95.5462 134.04 95.3142 134.12 95.0262 134.12ZM95.0262 119.552C94.6422 119.552 94.3302 119.44 94.0902 119.216C93.8502 118.992 93.7302 118.696 93.7302 118.328C93.7302 117.976 93.8502 117.688 94.0902 117.464C94.3302 117.24 94.6422 117.128 95.0262 117.128C95.4102 117.128 95.7222 117.24 95.9622 117.464C96.2022 117.688 96.3222 117.976 96.3222 118.328C96.3222 118.696 96.2022 118.992 95.9622 119.216C95.7222 119.44 95.4102 119.552 95.0262 119.552ZM108.5 122.072C108.804 122.072 109.036 122.16 109.196 122.336C109.372 122.512 109.46 122.744 109.46 123.032V133.184C109.46 133.456 109.372 133.68 109.196 133.856C109.036 134.032 108.804 134.12 108.5 134.12C108.212 134.12 107.98 134.04 107.804 133.88C107.644 133.704 107.564 133.48 107.564 133.208V132.008C107.196 132.712 106.676 133.248 106.004 133.616C105.348 133.984 104.604 134.168 103.772 134.168C102.38 134.168 101.332 133.784 100.628 133.016C99.9243 132.232 99.5723 131.08 99.5723 129.56V123.032C99.5723 122.744 99.6603 122.512 99.8363 122.336C100.012 122.16 100.252 122.072 100.556 122.072C100.86 122.072 101.092 122.16 101.252 122.336C101.428 122.512 101.516 122.744 101.516 123.032V129.512C101.516 130.552 101.724 131.32 102.14 131.816C102.556 132.296 103.212 132.536 104.108 132.536C105.132 132.536 105.956 132.208 106.58 131.552C107.204 130.88 107.516 130 107.516 128.912V123.032C107.516 122.744 107.604 122.512 107.78 122.336C107.956 122.16 108.196 122.072 108.5 122.072ZM122.457 116.96C122.761 116.96 123.001 117.048 123.177 117.224C123.353 117.4 123.441 117.624 123.441 117.896V133.16C123.441 133.448 123.353 133.68 123.177 133.856C123.001 134.032 122.761 134.12 122.457 134.12C122.153 134.12 121.913 134.032 121.737 133.856C121.577 133.68 121.497 133.448 121.497 133.16V131.864C121.145 132.6 120.625 133.168 119.937 133.568C119.265 133.968 118.473 134.168 117.561 134.168C116.537 134.168 115.633 133.912 114.849 133.4C114.065 132.888 113.457 132.176 113.025 131.264C112.593 130.336 112.377 129.264 112.377 128.048C112.377 126.848 112.593 125.792 113.025 124.88C113.457 123.968 114.065 123.264 114.849 122.768C115.633 122.272 116.537 122.024 117.561 122.024C118.473 122.024 119.265 122.224 119.937 122.624C120.625 123.024 121.145 123.592 121.497 124.328V117.896C121.497 117.608 121.577 117.384 121.737 117.224C121.913 117.048 122.153 116.96 122.457 116.96ZM117.945 132.56C119.081 132.56 119.953 132.176 120.561 131.408C121.185 130.624 121.497 129.52 121.497 128.096C121.497 126.672 121.185 125.576 120.561 124.808C119.953 124.04 119.081 123.656 117.945 123.656C116.809 123.656 115.921 124.04 115.281 124.808C114.657 125.576 114.345 126.656 114.345 128.048C114.345 129.472 114.657 130.584 115.281 131.384C115.921 132.168 116.809 132.56 117.945 132.56ZM131.818 122.024C134.746 122.024 136.21 123.56 136.21 126.632V133.16C136.21 133.448 136.122 133.68 135.946 133.856C135.786 134.032 135.562 134.12 135.274 134.12C134.986 134.12 134.754 134.032 134.578 133.856C134.402 133.68 134.314 133.448 134.314 133.16V132.008C134.01 132.696 133.546 133.232 132.922 133.616C132.298 133.984 131.578 134.168 130.762 134.168C130.01 134.168 129.314 134.016 128.674 133.712C128.05 133.408 127.554 132.984 127.186 132.44C126.818 131.896 126.634 131.296 126.634 130.64C126.634 129.76 126.858 129.08 127.306 128.6C127.754 128.104 128.49 127.752 129.514 127.544C130.538 127.32 131.962 127.208 133.786 127.208H134.314V126.416C134.314 125.456 134.114 124.752 133.714 124.304C133.33 123.856 132.698 123.632 131.818 123.632C130.73 123.632 129.626 123.928 128.506 124.52C128.074 124.792 127.77 124.928 127.594 124.928C127.402 124.928 127.242 124.856 127.114 124.712C126.986 124.568 126.922 124.384 126.922 124.16C126.922 123.936 126.986 123.744 127.114 123.584C127.258 123.408 127.482 123.232 127.786 123.056C128.346 122.736 128.978 122.488 129.682 122.312C130.402 122.12 131.114 122.024 131.818 122.024ZM131.026 132.632C131.986 132.632 132.77 132.312 133.378 131.672C134.002 131.016 134.314 130.176 134.314 129.152V128.456H133.882C132.474 128.456 131.402 128.52 130.666 128.648C129.93 128.76 129.402 128.96 129.082 129.248C128.778 129.52 128.626 129.928 128.626 130.472C128.626 131.096 128.85 131.616 129.298 132.032C129.762 132.432 130.338 132.632 131.026 132.632ZM149.153 116.96C149.457 116.96 149.697 117.048 149.873 117.224C150.049 117.4 150.137 117.624 150.137 117.896V133.16C150.137 133.448 150.049 133.68 149.873 133.856C149.697 134.032 149.457 134.12 149.153 134.12C148.849 134.12 148.609 134.032 148.433 133.856C148.273 133.68 148.193 133.448 148.193 133.16V131.864C147.841 132.6 147.321 133.168 146.633 133.568C145.961 133.968 145.169 134.168 144.257 134.168C143.233 134.168 142.329 133.912 141.545 133.4C140.761 132.888 140.153 132.176 139.721 131.264C139.289 130.336 139.073 129.264 139.073 128.048C139.073 126.848 139.289 125.792 139.721 124.88C140.153 123.968 140.761 123.264 141.545 122.768C142.329 122.272 143.233 122.024 144.257 122.024C145.169 122.024 145.961 122.224 146.633 122.624C147.321 123.024 147.841 123.592 148.193 124.328V117.896C148.193 117.608 148.273 117.384 148.433 117.224C148.609 117.048 148.849 116.96 149.153 116.96ZM144.641 132.56C145.777 132.56 146.649 132.176 147.257 131.408C147.881 130.624 148.193 129.52 148.193 128.096C148.193 126.672 147.881 125.576 147.257 124.808C146.649 124.04 145.777 123.656 144.641 123.656C143.505 123.656 142.617 124.04 141.977 124.808C141.353 125.576 141.041 126.656 141.041 128.048C141.041 129.472 141.353 130.584 141.977 131.384C142.617 132.168 143.505 132.56 144.641 132.56ZM158.514 122.024C161.442 122.024 162.906 123.56 162.906 126.632V133.16C162.906 133.448 162.818 133.68 162.642 133.856C162.482 134.032 162.258 134.12 161.97 134.12C161.682 134.12 161.45 134.032 161.274 133.856C161.098 133.68 161.01 133.448 161.01 133.16V132.008C160.706 132.696 160.242 133.232 159.618 133.616C158.994 133.984 158.274 134.168 157.458 134.168C156.706 134.168 156.01 134.016 155.37 133.712C154.746 133.408 154.25 132.984 153.882 132.44C153.514 131.896 153.33 131.296 153.33 130.64C153.33 129.76 153.554 129.08 154.002 128.6C154.45 128.104 155.186 127.752 156.21 127.544C157.234 127.32 158.658 127.208 160.482 127.208H161.01V126.416C161.01 125.456 160.81 124.752 160.41 124.304C160.026 123.856 159.394 123.632 158.514 123.632C157.426 123.632 156.322 123.928 155.202 124.52C154.77 124.792 154.466 124.928 154.29 124.928C154.098 124.928 153.938 124.856 153.81 124.712C153.682 124.568 153.618 124.384 153.618 124.16C153.618 123.936 153.682 123.744 153.81 123.584C153.954 123.408 154.178 123.232 154.482 123.056C155.042 122.736 155.674 122.488 156.378 122.312C157.098 122.12 157.81 122.024 158.514 122.024ZM157.722 132.632C158.682 132.632 159.466 132.312 160.074 131.672C160.698 131.016 161.01 130.176 161.01 129.152V128.456H160.578C159.17 128.456 158.098 128.52 157.362 128.648C156.626 128.76 156.098 128.96 155.778 129.248C155.474 129.52 155.322 129.928 155.322 130.472C155.322 131.096 155.546 131.616 155.994 132.032C156.458 132.432 157.034 132.632 157.722 132.632ZM172.344 122.024C175.144 122.024 176.544 123.568 176.544 126.656V133.16C176.544 133.464 176.456 133.704 176.28 133.88C176.12 134.04 175.888 134.12 175.584 134.12C175.28 134.12 175.04 134.04 174.864 133.88C174.688 133.704 174.6 133.464 174.6 133.16V126.776C174.6 125.688 174.384 124.896 173.952 124.4C173.536 123.904 172.864 123.656 171.936 123.656C170.864 123.656 170.008 123.984 169.368 124.64C168.728 125.296 168.408 126.184 168.408 127.304V133.16C168.408 133.464 168.32 133.704 168.144 133.88C167.984 134.04 167.752 134.12 167.448 134.12C167.144 134.12 166.904 134.04 166.728 133.88C166.552 133.704 166.464 133.464 166.464 133.16V123.032C166.464 122.744 166.552 122.512 166.728 122.336C166.904 122.16 167.144 122.072 167.448 122.072C167.736 122.072 167.96 122.16 168.12 122.336C168.296 122.512 168.384 122.736 168.384 123.008V124.232C168.768 123.512 169.304 122.968 169.992 122.6C170.68 122.216 171.464 122.024 172.344 122.024ZM184.953 134.168C183.849 134.168 182.873 133.92 182.025 133.424C181.193 132.928 180.545 132.224 180.081 131.312C179.633 130.384 179.409 129.312 179.409 128.096C179.409 126.88 179.633 125.816 180.081 124.904C180.545 123.976 181.193 123.264 182.025 122.768C182.873 122.272 183.849 122.024 184.953 122.024C186.057 122.024 187.033 122.272 187.881 122.768C188.729 123.264 189.377 123.976 189.825 124.904C190.289 125.816 190.521 126.88 190.521 128.096C190.521 129.312 190.289 130.384 189.825 131.312C189.377 132.224 188.729 132.928 187.881 133.424C187.033 133.92 186.057 134.168 184.953 134.168ZM184.953 132.56C186.105 132.56 186.985 132.184 187.593 131.432C188.217 130.664 188.529 129.552 188.529 128.096C188.529 126.672 188.217 125.576 187.593 124.808C186.969 124.024 186.089 123.632 184.953 123.632C183.817 123.632 182.937 124.024 182.313 124.808C181.689 125.576 181.377 126.672 181.377 128.096C181.377 129.536 181.681 130.64 182.289 131.408C182.913 132.176 183.801 132.56 184.953 132.56Z" fill="#65B98F"/>
</svg>
