<svg width="285" height="176" viewBox="0 0 285 176" fill="none" xmlns="http://www.w3.org/2000/svg">
<g filter="url(#filter0_d)">
<path fill-rule="evenodd" clip-rule="evenodd" d="M149.166 151.94C96.6404 152.654 35.7211 147.423 18.0957 113.42C-0.553665 77.4409 34.6642 40.8451 80.2538 18.9926C122.857 -1.42843 178.927 -4.70183 221.149 16.0897C264.187 37.2835 283.298 75.8734 265.184 110.059C248.662 141.24 197.454 151.283 149.166 151.94Z" fill="#FAFAFA"/>
</g>
<path d="M134.473 50.82L133.875 46.9794C133.752 46.1882 134.273 45.4397 135.059 45.2773C138.585 44.5496 138.427 44.5968 138.633 44.5056L141.426 43.2765C142.266 42.9071 143.24 43.3664 143.486 44.2481L144.598 48.2318C144.668 48.4854 144.805 48.7163 144.993 48.9013L146.437 50.3142C147.153 51.016 146.994 52.2083 146.118 52.698L143.019 54.4298L140.219 55.8135C139.62 56.1098 138.897 55.9765 138.443 55.4862L134.855 51.6086C134.652 51.3893 134.519 51.115 134.473 50.82Z" fill="#A7F3D0"/>
<path d="M174.876 65.7674C174.876 73.853 168.305 80.4081 160.2 80.4081C152.094 80.4081 145.523 73.853 145.523 65.7674C145.523 57.6817 152.094 51.1266 160.2 51.1266C168.305 51.1266 174.876 57.6817 174.876 65.7674V65.7674Z" fill="#059669"/>
<path d="M145.738 69.1196L147.847 101.926C147.945 103.45 149.213 104.635 150.743 104.635H169.656C171.186 104.635 172.453 103.45 172.551 101.926L174.661 69.1196H145.738Z" fill="#064E3B"/>
<path d="M174.186 71.5895H146.213C144.787 71.5895 143.631 70.436 143.631 69.0135C143.631 67.5909 144.787 66.4375 146.213 66.4375H174.186C175.612 66.4375 176.768 67.5909 176.768 69.0135C176.768 70.436 175.612 71.5895 174.186 71.5895Z" fill="#065F46"/>
<path d="M160.199 51.1266C157.823 51.1266 155.578 51.6913 153.592 52.6921V57.9954C153.592 61.6362 156.55 64.5874 160.199 64.5874C163.849 64.5874 166.808 61.6362 166.808 57.9954V52.6921C164.821 51.6913 162.577 51.1266 160.199 51.1266V51.1266Z" fill="#10B981"/>
<path d="M103.246 104.449C101.052 103.771 99.8241 101.446 100.504 99.2571L105.989 81.5908L106.543 68.3609C106.64 66.0709 108.578 64.2919 110.873 64.3883C113.168 64.484 114.951 66.4176 114.855 68.7076L114.278 82.4764C114.263 82.8348 114.201 83.1886 114.095 83.5308L108.45 101.712C107.773 103.894 105.447 105.128 103.246 104.449Z" fill="#047857"/>
<path d="M124.621 101.045L121.953 81.4982L115.962 66.2087C115.126 64.0745 116.182 61.668 118.322 60.8335C120.462 59.999 122.875 61.0535 123.711 63.1876L129.883 78.9378C130.002 79.2438 130.085 79.5634 130.13 79.8887L132.864 99.926C133.174 102.197 131.58 104.288 129.303 104.597C127.023 104.907 124.93 103.311 124.621 101.045Z" fill="#065F46"/>
<path d="M125.679 68.2069H106.556V42.3378C106.556 39.5529 108.819 37.2952 111.61 37.2952H120.624C123.415 37.2952 125.679 39.5529 125.679 42.3378V68.2069Z" fill="#059669"/>
<path d="M124.803 27.3082C124.803 31.4303 121.453 34.7722 117.321 34.7722C113.188 34.7722 109.839 31.4303 109.839 27.3082C109.839 23.1862 113.188 19.8442 117.321 19.8442C121.453 19.8442 124.803 23.1862 124.803 27.3082Z" fill="#F5A990"/>
<path d="M138.089 57.8227L123.815 57.2334C122.88 57.1952 122.005 56.7656 121.404 56.0515L111.852 44.7047C110.671 43.3003 110.854 41.2069 112.261 40.0276C113.669 38.849 115.767 39.0314 116.95 40.4352L125.556 50.6608L138.364 51.1893C140.2 51.2657 141.627 52.8118 141.551 54.6432C141.475 56.4732 139.927 57.899 138.089 57.8227Z" fill="#F5A990"/>
<path d="M121.639 46.0063L116.95 40.4352C115.767 39.0314 113.669 38.849 112.261 40.0276C110.854 41.2069 110.671 43.3003 111.852 44.7047L116.535 50.2675L121.639 46.0063Z" fill="#10B981"/>
<path d="M94.264 138.192C92.664 138.192 91.28 137.848 90.112 137.16C88.944 136.456 88.04 135.456 87.4 134.16C86.776 132.848 86.464 131.304 86.464 129.528C86.464 127.768 86.776 126.24 87.4 124.944C88.04 123.632 88.944 122.632 90.112 121.944C91.28 121.24 92.664 120.888 94.264 120.888C95.336 120.888 96.344 121.064 97.288 121.416C98.248 121.752 99.08 122.24 99.784 122.88C100.04 123.12 100.168 123.4 100.168 123.72C100.168 123.944 100.104 124.144 99.976 124.32C99.848 124.48 99.696 124.56 99.52 124.56C99.328 124.56 99.096 124.472 98.824 124.296C98.008 123.656 97.264 123.208 96.592 122.952C95.936 122.696 95.176 122.568 94.312 122.568C92.456 122.568 91.024 123.176 90.016 124.392C89.024 125.592 88.528 127.304 88.528 129.528C88.528 131.768 89.024 133.496 90.016 134.712C91.024 135.912 92.456 136.512 94.312 136.512C95.16 136.512 95.92 136.384 96.592 136.128C97.264 135.872 98.008 135.424 98.824 134.784C99.096 134.608 99.328 134.52 99.52 134.52C99.696 134.52 99.848 134.6 99.976 134.76C100.104 134.92 100.168 135.12 100.168 135.36C100.168 135.68 100.04 135.96 99.784 136.2C99.08 136.84 98.248 137.336 97.288 137.688C96.344 138.024 95.336 138.192 94.264 138.192ZM104.026 138.12C103.738 138.12 103.498 138.04 103.306 137.88C103.13 137.704 103.042 137.464 103.042 137.16V127.032C103.042 126.728 103.13 126.496 103.306 126.336C103.498 126.16 103.738 126.072 104.026 126.072C104.314 126.072 104.546 126.16 104.722 126.336C104.898 126.496 104.986 126.728 104.986 127.032V137.16C104.986 137.48 104.898 137.72 104.722 137.88C104.546 138.04 104.314 138.12 104.026 138.12ZM104.026 123.552C103.642 123.552 103.33 123.44 103.09 123.216C102.85 122.992 102.73 122.696 102.73 122.328C102.73 121.976 102.85 121.688 103.09 121.464C103.33 121.24 103.642 121.128 104.026 121.128C104.41 121.128 104.722 121.24 104.962 121.464C105.202 121.688 105.322 121.976 105.322 122.328C105.322 122.696 105.202 122.992 104.962 123.216C104.722 123.44 104.41 123.552 104.026 123.552ZM117.5 126.072C117.804 126.072 118.036 126.16 118.196 126.336C118.372 126.512 118.46 126.744 118.46 127.032V137.184C118.46 137.456 118.372 137.68 118.196 137.856C118.036 138.032 117.804 138.12 117.5 138.12C117.212 138.12 116.98 138.04 116.804 137.88C116.644 137.704 116.564 137.48 116.564 137.208V136.008C116.196 136.712 115.676 137.248 115.004 137.616C114.348 137.984 113.604 138.168 112.772 138.168C111.38 138.168 110.332 137.784 109.628 137.016C108.924 136.232 108.572 135.08 108.572 133.56V127.032C108.572 126.744 108.66 126.512 108.836 126.336C109.012 126.16 109.252 126.072 109.556 126.072C109.86 126.072 110.092 126.16 110.252 126.336C110.428 126.512 110.516 126.744 110.516 127.032V133.512C110.516 134.552 110.724 135.32 111.14 135.816C111.556 136.296 112.212 136.536 113.108 136.536C114.132 136.536 114.956 136.208 115.58 135.552C116.204 134.88 116.516 134 116.516 132.912V127.032C116.516 126.744 116.604 126.512 116.78 126.336C116.956 126.16 117.196 126.072 117.5 126.072ZM131.457 120.96C131.761 120.96 132.001 121.048 132.177 121.224C132.353 121.4 132.441 121.624 132.441 121.896V137.16C132.441 137.448 132.353 137.68 132.177 137.856C132.001 138.032 131.761 138.12 131.457 138.12C131.153 138.12 130.913 138.032 130.737 137.856C130.577 137.68 130.497 137.448 130.497 137.16V135.864C130.145 136.6 129.625 137.168 128.937 137.568C128.265 137.968 127.473 138.168 126.561 138.168C125.537 138.168 124.633 137.912 123.849 137.4C123.065 136.888 122.457 136.176 122.025 135.264C121.593 134.336 121.377 133.264 121.377 132.048C121.377 130.848 121.593 129.792 122.025 128.88C122.457 127.968 123.065 127.264 123.849 126.768C124.633 126.272 125.537 126.024 126.561 126.024C127.473 126.024 128.265 126.224 128.937 126.624C129.625 127.024 130.145 127.592 130.497 128.328V121.896C130.497 121.608 130.577 121.384 130.737 121.224C130.913 121.048 131.153 120.96 131.457 120.96ZM126.945 136.56C128.081 136.56 128.953 136.176 129.561 135.408C130.185 134.624 130.497 133.52 130.497 132.096C130.497 130.672 130.185 129.576 129.561 128.808C128.953 128.04 128.081 127.656 126.945 127.656C125.809 127.656 124.921 128.04 124.281 128.808C123.657 129.576 123.345 130.656 123.345 132.048C123.345 133.472 123.657 134.584 124.281 135.384C124.921 136.168 125.809 136.56 126.945 136.56ZM140.818 126.024C143.746 126.024 145.21 127.56 145.21 130.632V137.16C145.21 137.448 145.122 137.68 144.946 137.856C144.786 138.032 144.562 138.12 144.274 138.12C143.986 138.12 143.754 138.032 143.578 137.856C143.402 137.68 143.314 137.448 143.314 137.16V136.008C143.01 136.696 142.546 137.232 141.922 137.616C141.298 137.984 140.578 138.168 139.762 138.168C139.01 138.168 138.314 138.016 137.674 137.712C137.05 137.408 136.554 136.984 136.186 136.44C135.818 135.896 135.634 135.296 135.634 134.64C135.634 133.76 135.858 133.08 136.306 132.6C136.754 132.104 137.49 131.752 138.514 131.544C139.538 131.32 140.962 131.208 142.786 131.208H143.314V130.416C143.314 129.456 143.114 128.752 142.714 128.304C142.33 127.856 141.698 127.632 140.818 127.632C139.73 127.632 138.626 127.928 137.506 128.52C137.074 128.792 136.77 128.928 136.594 128.928C136.402 128.928 136.242 128.856 136.114 128.712C135.986 128.568 135.922 128.384 135.922 128.16C135.922 127.936 135.986 127.744 136.114 127.584C136.258 127.408 136.482 127.232 136.786 127.056C137.346 126.736 137.978 126.488 138.682 126.312C139.402 126.12 140.114 126.024 140.818 126.024ZM140.026 136.632C140.986 136.632 141.77 136.312 142.378 135.672C143.002 135.016 143.314 134.176 143.314 133.152V132.456H142.882C141.474 132.456 140.402 132.52 139.666 132.648C138.93 132.76 138.402 132.96 138.082 133.248C137.778 133.52 137.626 133.928 137.626 134.472C137.626 135.096 137.85 135.616 138.298 136.032C138.762 136.432 139.338 136.632 140.026 136.632ZM158.153 120.96C158.457 120.96 158.697 121.048 158.873 121.224C159.049 121.4 159.137 121.624 159.137 121.896V137.16C159.137 137.448 159.049 137.68 158.873 137.856C158.697 138.032 158.457 138.12 158.153 138.12C157.849 138.12 157.609 138.032 157.433 137.856C157.273 137.68 157.193 137.448 157.193 137.16V135.864C156.841 136.6 156.321 137.168 155.633 137.568C154.961 137.968 154.169 138.168 153.257 138.168C152.233 138.168 151.329 137.912 150.545 137.4C149.761 136.888 149.153 136.176 148.721 135.264C148.289 134.336 148.073 133.264 148.073 132.048C148.073 130.848 148.289 129.792 148.721 128.88C149.153 127.968 149.761 127.264 150.545 126.768C151.329 126.272 152.233 126.024 153.257 126.024C154.169 126.024 154.961 126.224 155.633 126.624C156.321 127.024 156.841 127.592 157.193 128.328V121.896C157.193 121.608 157.273 121.384 157.433 121.224C157.609 121.048 157.849 120.96 158.153 120.96ZM153.641 136.56C154.777 136.56 155.649 136.176 156.257 135.408C156.881 134.624 157.193 133.52 157.193 132.096C157.193 130.672 156.881 129.576 156.257 128.808C155.649 128.04 154.777 127.656 153.641 127.656C152.505 127.656 151.617 128.04 150.977 128.808C150.353 129.576 150.041 130.656 150.041 132.048C150.041 133.472 150.353 134.584 150.977 135.384C151.617 136.168 152.505 136.56 153.641 136.56ZM167.514 126.024C170.442 126.024 171.906 127.56 171.906 130.632V137.16C171.906 137.448 171.818 137.68 171.642 137.856C171.482 138.032 171.258 138.12 170.97 138.12C170.682 138.12 170.45 138.032 170.274 137.856C170.098 137.68 170.01 137.448 170.01 137.16V136.008C169.706 136.696 169.242 137.232 168.618 137.616C167.994 137.984 167.274 138.168 166.458 138.168C165.706 138.168 165.01 138.016 164.37 137.712C163.746 137.408 163.25 136.984 162.882 136.44C162.514 135.896 162.33 135.296 162.33 134.64C162.33 133.76 162.554 133.08 163.002 132.6C163.45 132.104 164.186 131.752 165.21 131.544C166.234 131.32 167.658 131.208 169.482 131.208H170.01V130.416C170.01 129.456 169.81 128.752 169.41 128.304C169.026 127.856 168.394 127.632 167.514 127.632C166.426 127.632 165.322 127.928 164.202 128.52C163.77 128.792 163.466 128.928 163.29 128.928C163.098 128.928 162.938 128.856 162.81 128.712C162.682 128.568 162.618 128.384 162.618 128.16C162.618 127.936 162.682 127.744 162.81 127.584C162.954 127.408 163.178 127.232 163.482 127.056C164.042 126.736 164.674 126.488 165.378 126.312C166.098 126.12 166.81 126.024 167.514 126.024ZM166.722 136.632C167.682 136.632 168.466 136.312 169.074 135.672C169.698 135.016 170.01 134.176 170.01 133.152V132.456H169.578C168.17 132.456 167.098 132.52 166.362 132.648C165.626 132.76 165.098 132.96 164.778 133.248C164.474 133.52 164.322 133.928 164.322 134.472C164.322 135.096 164.546 135.616 164.994 136.032C165.458 136.432 166.034 136.632 166.722 136.632ZM181.344 126.024C184.144 126.024 185.544 127.568 185.544 130.656V137.16C185.544 137.464 185.456 137.704 185.28 137.88C185.12 138.04 184.888 138.12 184.584 138.12C184.28 138.12 184.04 138.04 183.864 137.88C183.688 137.704 183.6 137.464 183.6 137.16V130.776C183.6 129.688 183.384 128.896 182.952 128.4C182.536 127.904 181.864 127.656 180.936 127.656C179.864 127.656 179.008 127.984 178.368 128.64C177.728 129.296 177.408 130.184 177.408 131.304V137.16C177.408 137.464 177.32 137.704 177.144 137.88C176.984 138.04 176.752 138.12 176.448 138.12C176.144 138.12 175.904 138.04 175.728 137.88C175.552 137.704 175.464 137.464 175.464 137.16V127.032C175.464 126.744 175.552 126.512 175.728 126.336C175.904 126.16 176.144 126.072 176.448 126.072C176.736 126.072 176.96 126.16 177.12 126.336C177.296 126.512 177.384 126.736 177.384 127.008V128.232C177.768 127.512 178.304 126.968 178.992 126.6C179.68 126.216 180.464 126.024 181.344 126.024ZM193.953 138.168C192.849 138.168 191.873 137.92 191.025 137.424C190.193 136.928 189.545 136.224 189.081 135.312C188.633 134.384 188.409 133.312 188.409 132.096C188.409 130.88 188.633 129.816 189.081 128.904C189.545 127.976 190.193 127.264 191.025 126.768C191.873 126.272 192.849 126.024 193.953 126.024C195.057 126.024 196.033 126.272 196.881 126.768C197.729 127.264 198.377 127.976 198.825 128.904C199.289 129.816 199.521 130.88 199.521 132.096C199.521 133.312 199.289 134.384 198.825 135.312C198.377 136.224 197.729 136.928 196.881 137.424C196.033 137.92 195.057 138.168 193.953 138.168ZM193.953 136.56C195.105 136.56 195.985 136.184 196.593 135.432C197.217 134.664 197.529 133.552 197.529 132.096C197.529 130.672 197.217 129.576 196.593 128.808C195.969 128.024 195.089 127.632 193.953 127.632C192.817 127.632 191.937 128.024 191.313 128.808C190.689 129.576 190.377 130.672 190.377 132.096C190.377 133.536 190.681 134.64 191.289 135.408C191.913 136.176 192.801 136.56 193.953 136.56Z" fill="#65B98F"/>
<defs>
<filter id="filter0_d" x="0" y="0" width="285" height="176" filterUnits="userSpaceOnUse" color-interpolation-filters="sRGB">
<feFlood flood-opacity="0" result="BackgroundImageFix"/>
<feColorMatrix in="SourceAlpha" type="matrix" values="0 0 0 0 0 0 0 0 0 0 0 0 0 0 0 0 0 0 127 0"/>
<feOffset dy="11"/>
<feGaussianBlur stdDeviation="6.5"/>
<feColorMatrix type="matrix" values="0 0 0 0 0 0 0 0 0 0 0 0 0 0 0 0 0 0 0.25 0"/>
<feBlend mode="normal" in2="BackgroundImageFix" result="effect1_dropShadow"/>
<feBlend mode="normal" in="SourceGraphic" in2="effect1_dropShadow" result="shape"/>
</filter>
</defs>
</svg>
