<svg width="285" height="175" viewBox="0 0 285 175" fill="none" xmlns="http://www.w3.org/2000/svg">
<g filter="url(#filter0_d)">
<path fill-rule="evenodd" clip-rule="evenodd" d="M135.834 2.05972C188.36 1.35013 249.279 6.54662 266.904 40.3232C285.554 76.062 250.336 112.414 204.746 134.121C162.143 154.406 106.073 157.657 63.8514 137.004C20.8128 115.952 1.70214 77.6191 19.816 43.6612C36.3378 12.688 87.5456 2.71206 135.834 2.05972Z" fill="#FAFAFA"/>
</g>
<path d="M176.349 41.096L183.637 55.0923C183.829 55.4617 183.929 55.8719 183.929 56.2882V68.3593H152.85V39.6975H174.041C175.011 39.6975 175.901 40.2367 176.349 41.096Z" fill="#10B981"/>
<path d="M175.849 52.6492L171.909 45.0837C171.812 44.8961 171.617 44.7786 171.406 44.7786H162.26C161.946 44.7786 161.692 45.032 161.692 45.3447V52.9102C161.692 53.2228 161.946 53.4763 162.26 53.4763H175.345C175.771 53.4761 176.045 53.0259 175.849 52.6492V52.6492Z" fill="#D1FAE5"/>
<path d="M183.637 55.0923L176.348 41.096C175.901 40.2367 175.011 39.6975 174.04 39.6975H167.532C168.503 39.6975 169.393 40.2367 169.84 41.096L177.128 55.0923C177.321 55.4617 177.421 55.8719 177.421 56.2882V68.3593H183.929V56.2882C183.929 55.8719 183.829 55.4617 183.637 55.0923V55.0923Z" fill="#059669"/>
<path d="M175.849 52.6491L171.909 45.0837C171.812 44.8963 171.618 44.7786 171.406 44.7786H167.117C167.329 44.7786 167.523 44.8961 167.62 45.0837L171.56 52.6491C171.756 53.0258 171.482 53.476 171.056 53.476H175.345C175.771 53.476 176.045 53.0258 175.849 52.6491V52.6491Z" fill="#A7F3D0"/>
<path d="M159.827 27.343H107.94C107.487 27.343 107.08 27.6159 106.908 28.0336C93.3266 61.133 94.1467 59.0282 94.1467 59.3536V68.3595H111.072H157.144V32.7791H159.827C160.443 32.7791 160.942 32.2813 160.942 31.6672V28.4551C160.942 27.841 160.443 27.343 159.827 27.343Z" fill="#059669"/>
<path d="M185.257 74.4953H92.743C92.3327 74.4953 92 74.1634 92 73.7541V69.1007C92 68.6913 92.3327 68.3595 92.743 68.3595H185.257C185.667 68.3595 186 68.6913 186 69.1007V73.7541C186 74.1634 185.667 74.4953 185.257 74.4953Z" fill="#34D399"/>
<path d="M185.257 68.3594H178.823C179.234 68.3594 179.566 68.6912 179.566 69.1007V73.7542C179.566 74.1636 179.234 74.4956 178.823 74.4956H185.257C185.667 74.4956 186 74.1637 186 73.7542V69.1007C186 68.6912 185.667 68.3594 185.257 68.3594Z" fill="#10B981"/>
<path d="M100.245 68.3593H105.432L121.995 27.343H116.807L100.245 68.3593Z" fill="#065F46"/>
<path d="M114.638 68.3593H119.826L136.389 27.343H131.201L114.638 68.3593Z" fill="#065F46"/>
<path d="M129.031 68.3593H134.219L150.782 27.343H145.594L129.031 68.3593Z" fill="#065F46"/>
<path d="M111.859 83.6003C116.9 83.6003 120.987 79.5238 120.987 74.4952C120.987 69.4666 116.9 65.3901 111.859 65.3901C106.818 65.3901 102.732 69.4666 102.732 74.4952C102.732 79.5238 106.818 83.6003 111.859 83.6003Z" fill="#065F46"/>
<path d="M115.634 75.097C115.973 73.0121 114.553 71.048 112.463 70.71C110.373 70.372 108.404 71.7881 108.065 73.873C107.727 75.9579 109.146 77.9221 111.236 78.2601C113.327 78.5981 115.296 77.1819 115.634 75.097Z" fill="#A7F3D0"/>
<path d="M134.64 83.6003C139.681 83.6003 143.768 79.5238 143.768 74.4952C143.768 69.4666 139.681 65.3901 134.64 65.3901C129.599 65.3901 125.513 69.4666 125.513 74.4952C125.513 79.5238 129.599 83.6003 134.64 83.6003Z" fill="#065F46"/>
<path d="M138.411 75.0991C138.75 73.0142 137.331 71.0501 135.24 70.7121C133.15 70.3741 131.181 71.7902 130.842 73.8751C130.504 75.96 131.923 77.9241 134.014 78.2621C136.104 78.6001 138.073 77.184 138.411 75.0991Z" fill="#A7F3D0"/>
<path d="M170.058 83.6003C175.099 83.6003 179.186 79.5238 179.186 74.4952C179.186 69.4666 175.099 65.3901 170.058 65.3901C165.017 65.3901 160.931 69.4666 160.931 74.4952C160.931 79.5238 165.017 83.6003 170.058 83.6003Z" fill="#065F46"/>
<path d="M170.058 78.3201C172.176 78.3201 173.892 76.6077 173.892 74.4954C173.892 72.383 172.176 70.6707 170.058 70.6707C167.941 70.6707 166.224 72.383 166.224 74.4954C166.224 76.6077 167.941 78.3201 170.058 78.3201Z" fill="#A7F3D0"/>
<path d="M111.859 65.3901C111.12 65.3901 110.403 65.4801 109.715 65.6452C113.721 66.6078 116.698 70.2037 116.698 74.4951C116.698 78.7864 113.721 82.3823 109.715 83.3449C110.403 83.5102 111.12 83.6 111.859 83.6C116.9 83.6 120.987 79.5236 120.987 74.4949C120.987 69.4667 116.9 65.3901 111.859 65.3901V65.3901Z" fill="#064E3B"/>
<path d="M132.496 65.6455C136.502 66.6081 139.479 70.2039 139.479 74.4953C139.479 78.7867 136.502 82.3825 132.496 83.3451C133.184 83.5105 133.902 83.6002 134.641 83.6002C139.682 83.6002 143.768 79.5238 143.768 74.4951C143.768 68.6281 138.266 64.2589 132.496 65.6455V65.6455Z" fill="#064E3B"/>
<path d="M170.058 65.3901C169.319 65.3901 168.602 65.4801 167.914 65.6452C171.92 66.6078 174.897 70.2037 174.897 74.4951C174.897 78.7864 171.92 82.3823 167.914 83.3449C168.602 83.5102 169.319 83.6 170.058 83.6C175.099 83.6 179.186 79.5236 179.186 74.4949C179.186 69.4667 175.099 65.3901 170.058 65.3901V65.3901Z" fill="#064E3B"/>
<path d="M115.447 30.0171H120.319L121.333 27.343H116.461L115.447 30.0171Z" fill="#026841"/>
<path d="M129.84 30.0171H134.712L135.726 27.343H130.855L129.84 30.0171Z" fill="#026841"/>
<path d="M144.234 30.0171H149.106L150.12 27.343H145.248L144.234 30.0171Z" fill="#026841"/>
<path d="M159.827 27.343H107.94C107.487 27.343 107.08 27.6159 106.908 28.0336L106.094 30.0171H150.836C151.359 30.0171 151.782 30.4394 151.782 30.9605V68.3593H157.143V32.7791H159.827C160.442 32.7791 160.941 32.2813 160.941 31.6672V28.4551C160.942 27.841 160.443 27.343 159.827 27.343Z" fill="#047857"/>
<path d="M183.93 63.0499H177.678C176.947 63.0499 176.354 62.4585 176.354 61.7292V59.6539C176.354 58.9244 176.947 58.3333 177.678 58.3333H183.93V63.0499Z" fill="#FEC165"/>
<path d="M100 117.776C100.112 117.952 100.168 118.136 100.168 118.328C100.168 118.568 100.072 118.768 99.88 118.928C99.704 119.072 99.496 119.144 99.256 119.144C98.888 119.144 98.6 118.984 98.392 118.664L95.176 113.576C94.76 112.92 94.328 112.472 93.88 112.232C93.432 111.976 92.824 111.848 92.056 111.848H89.032V118.112C89.032 118.416 88.944 118.664 88.768 118.856C88.592 119.032 88.36 119.12 88.072 119.12C87.768 119.12 87.528 119.032 87.352 118.856C87.176 118.664 87.088 118.416 87.088 118.112V103.04C87.088 102.752 87.176 102.52 87.352 102.344C87.544 102.168 87.792 102.08 88.096 102.08H94.048C95.888 102.08 97.288 102.488 98.248 103.304C99.224 104.12 99.712 105.32 99.712 106.904C99.712 108.248 99.32 109.328 98.536 110.144C97.768 110.96 96.664 111.456 95.224 111.632C95.624 111.76 95.984 111.968 96.304 112.256C96.624 112.544 96.944 112.944 97.264 113.456L100 117.776ZM93.88 110.216C95.192 110.216 96.168 109.944 96.808 109.4C97.464 108.856 97.792 108.032 97.792 106.928C97.792 105.84 97.472 105.032 96.832 104.504C96.192 103.976 95.208 103.712 93.88 103.712H89.032V110.216H93.88ZM112.301 116.288C112.477 116.288 112.629 116.36 112.757 116.504C112.885 116.648 112.949 116.832 112.949 117.056C112.949 117.456 112.669 117.824 112.109 118.16C111.533 118.496 110.925 118.752 110.285 118.928C109.645 119.088 109.021 119.168 108.413 119.168C106.605 119.168 105.173 118.632 104.117 117.56C103.077 116.488 102.557 115.008 102.557 113.12C102.557 111.92 102.789 110.864 103.253 109.952C103.717 109.024 104.365 108.304 105.197 107.792C106.045 107.28 107.005 107.024 108.077 107.024C109.597 107.024 110.805 107.52 111.701 108.512C112.597 109.504 113.045 110.848 113.045 112.544C113.045 112.864 112.981 113.096 112.853 113.24C112.725 113.384 112.517 113.456 112.229 113.456H104.501C104.645 116.208 105.949 117.584 108.413 117.584C109.037 117.584 109.573 117.504 110.021 117.344C110.469 117.168 110.949 116.936 111.461 116.648C111.877 116.408 112.157 116.288 112.301 116.288ZM108.101 108.536C107.077 108.536 106.253 108.856 105.629 109.496C105.021 110.136 104.661 111.04 104.549 112.208H111.341C111.309 111.024 111.013 110.12 110.453 109.496C109.893 108.856 109.109 108.536 108.101 108.536ZM120.733 119.168C119.645 119.168 118.677 118.92 117.829 118.424C116.997 117.928 116.349 117.224 115.885 116.312C115.437 115.4 115.213 114.344 115.213 113.144C115.213 111.944 115.445 110.88 115.909 109.952C116.389 109.024 117.053 108.304 117.901 107.792C118.749 107.28 119.725 107.024 120.829 107.024C121.437 107.024 122.037 107.112 122.629 107.288C123.237 107.448 123.765 107.688 124.213 108.008C124.501 108.2 124.701 108.392 124.813 108.584C124.941 108.76 125.005 108.96 125.005 109.184C125.005 109.408 124.941 109.592 124.813 109.736C124.701 109.88 124.549 109.952 124.357 109.952C124.245 109.952 124.125 109.92 123.997 109.856C123.869 109.792 123.757 109.728 123.661 109.664C123.581 109.6 123.525 109.56 123.493 109.544C123.077 109.272 122.677 109.056 122.293 108.896C121.925 108.736 121.469 108.656 120.925 108.656C119.757 108.656 118.845 109.056 118.189 109.856C117.549 110.64 117.229 111.736 117.229 113.144C117.229 114.552 117.549 115.64 118.189 116.408C118.845 117.176 119.757 117.56 120.925 117.56C121.469 117.56 121.933 117.48 122.317 117.32C122.717 117.16 123.117 116.944 123.517 116.672C123.693 116.56 123.861 116.464 124.021 116.384C124.181 116.304 124.317 116.264 124.429 116.264C124.605 116.264 124.749 116.336 124.861 116.48C124.989 116.624 125.053 116.808 125.053 117.032C125.053 117.24 124.997 117.432 124.885 117.608C124.773 117.768 124.565 117.952 124.261 118.16C123.813 118.464 123.269 118.712 122.629 118.904C122.005 119.08 121.373 119.168 120.733 119.168ZM132.242 119.168C131.138 119.168 130.162 118.92 129.314 118.424C128.482 117.928 127.834 117.224 127.37 116.312C126.922 115.384 126.698 114.312 126.698 113.096C126.698 111.88 126.922 110.816 127.37 109.904C127.834 108.976 128.482 108.264 129.314 107.768C130.162 107.272 131.138 107.024 132.242 107.024C133.346 107.024 134.322 107.272 135.17 107.768C136.018 108.264 136.666 108.976 137.114 109.904C137.578 110.816 137.81 111.88 137.81 113.096C137.81 114.312 137.578 115.384 137.114 116.312C136.666 117.224 136.018 117.928 135.17 118.424C134.322 118.92 133.346 119.168 132.242 119.168ZM132.242 117.56C133.394 117.56 134.274 117.184 134.882 116.432C135.506 115.664 135.818 114.552 135.818 113.096C135.818 111.672 135.506 110.576 134.882 109.808C134.258 109.024 133.378 108.632 132.242 108.632C131.106 108.632 130.226 109.024 129.602 109.808C128.978 110.576 128.666 111.672 128.666 113.096C128.666 114.536 128.97 115.64 129.578 116.408C130.202 117.176 131.09 117.56 132.242 117.56ZM141.69 119.12C141.402 119.12 141.162 119.04 140.97 118.88C140.794 118.704 140.706 118.464 140.706 118.16V102.92C140.706 102.616 140.794 102.384 140.97 102.224C141.162 102.048 141.402 101.96 141.69 101.96C141.962 101.96 142.186 102.048 142.362 102.224C142.554 102.384 142.65 102.616 142.65 102.92V118.16C142.65 118.464 142.554 118.704 142.362 118.88C142.186 119.04 141.962 119.12 141.69 119.12ZM155.332 116.288C155.508 116.288 155.66 116.36 155.788 116.504C155.916 116.648 155.98 116.832 155.98 117.056C155.98 117.456 155.7 117.824 155.14 118.16C154.564 118.496 153.956 118.752 153.316 118.928C152.676 119.088 152.052 119.168 151.444 119.168C149.636 119.168 148.204 118.632 147.148 117.56C146.108 116.488 145.588 115.008 145.588 113.12C145.588 111.92 145.82 110.864 146.284 109.952C146.748 109.024 147.396 108.304 148.228 107.792C149.076 107.28 150.036 107.024 151.108 107.024C152.628 107.024 153.836 107.52 154.732 108.512C155.628 109.504 156.076 110.848 156.076 112.544C156.076 112.864 156.012 113.096 155.884 113.24C155.756 113.384 155.548 113.456 155.26 113.456H147.532C147.676 116.208 148.98 117.584 151.444 117.584C152.068 117.584 152.604 117.504 153.052 117.344C153.5 117.168 153.98 116.936 154.492 116.648C154.908 116.408 155.188 116.288 155.332 116.288ZM151.132 108.536C150.108 108.536 149.284 108.856 148.66 109.496C148.052 110.136 147.692 111.04 147.58 112.208H154.372C154.34 111.024 154.044 110.12 153.484 109.496C152.924 108.856 152.14 108.536 151.132 108.536ZM163.765 119.168C162.677 119.168 161.709 118.92 160.861 118.424C160.029 117.928 159.381 117.224 158.917 116.312C158.469 115.4 158.245 114.344 158.245 113.144C158.245 111.944 158.477 110.88 158.941 109.952C159.421 109.024 160.085 108.304 160.933 107.792C161.781 107.28 162.757 107.024 163.861 107.024C164.469 107.024 165.069 107.112 165.661 107.288C166.269 107.448 166.797 107.688 167.245 108.008C167.533 108.2 167.733 108.392 167.845 108.584C167.973 108.76 168.037 108.96 168.037 109.184C168.037 109.408 167.973 109.592 167.845 109.736C167.733 109.88 167.581 109.952 167.389 109.952C167.277 109.952 167.157 109.92 167.029 109.856C166.901 109.792 166.789 109.728 166.693 109.664C166.613 109.6 166.557 109.56 166.525 109.544C166.109 109.272 165.709 109.056 165.325 108.896C164.957 108.736 164.501 108.656 163.957 108.656C162.789 108.656 161.877 109.056 161.221 109.856C160.581 110.64 160.261 111.736 160.261 113.144C160.261 114.552 160.581 115.64 161.221 116.408C161.877 117.176 162.789 117.56 163.957 117.56C164.501 117.56 164.965 117.48 165.349 117.32C165.749 117.16 166.149 116.944 166.549 116.672C166.725 116.56 166.893 116.464 167.053 116.384C167.213 116.304 167.349 116.264 167.461 116.264C167.637 116.264 167.781 116.336 167.893 116.48C168.021 116.624 168.085 116.808 168.085 117.032C168.085 117.24 168.029 117.432 167.917 117.608C167.805 117.768 167.597 117.952 167.293 118.16C166.845 118.464 166.301 118.712 165.661 118.904C165.037 119.08 164.405 119.168 163.765 119.168ZM175.848 117.584C176.408 117.632 176.688 117.888 176.688 118.352C176.688 118.624 176.584 118.832 176.376 118.976C176.184 119.104 175.888 119.152 175.488 119.12L174.84 119.072C173.56 118.976 172.616 118.592 172.008 117.92C171.4 117.248 171.096 116.232 171.096 114.872V108.848H169.488C169.216 108.848 169 108.784 168.84 108.656C168.696 108.512 168.624 108.328 168.624 108.104C168.624 107.864 168.696 107.672 168.84 107.528C169 107.384 169.216 107.312 169.488 107.312H171.096V104.6C171.096 104.296 171.184 104.064 171.36 103.904C171.536 103.728 171.776 103.64 172.08 103.64C172.368 103.64 172.6 103.728 172.776 103.904C172.952 104.064 173.04 104.296 173.04 104.6V107.312H175.704C175.96 107.312 176.16 107.384 176.304 107.528C176.464 107.672 176.544 107.864 176.544 108.104C176.544 108.328 176.464 108.512 176.304 108.656C176.16 108.784 175.96 108.848 175.704 108.848H173.04V114.968C173.04 115.848 173.216 116.488 173.568 116.888C173.936 117.272 174.48 117.488 175.2 117.536L175.848 117.584ZM183.453 119.168C182.349 119.168 181.373 118.92 180.525 118.424C179.693 117.928 179.045 117.224 178.581 116.312C178.133 115.384 177.909 114.312 177.909 113.096C177.909 111.88 178.133 110.816 178.581 109.904C179.045 108.976 179.693 108.264 180.525 107.768C181.373 107.272 182.349 107.024 183.453 107.024C184.557 107.024 185.533 107.272 186.381 107.768C187.229 108.264 187.877 108.976 188.325 109.904C188.789 110.816 189.021 111.88 189.021 113.096C189.021 114.312 188.789 115.384 188.325 116.312C187.877 117.224 187.229 117.928 186.381 118.424C185.533 118.92 184.557 119.168 183.453 119.168ZM183.453 117.56C184.605 117.56 185.485 117.184 186.093 116.432C186.717 115.664 187.029 114.552 187.029 113.096C187.029 111.672 186.717 110.576 186.093 109.808C185.469 109.024 184.589 108.632 183.453 108.632C182.317 108.632 181.437 109.024 180.813 109.808C180.189 110.576 179.877 111.672 179.877 113.096C179.877 114.536 180.181 115.64 180.789 116.408C181.413 117.176 182.301 117.56 183.453 117.56ZM197.701 107.072C198.373 107.024 198.709 107.296 198.709 107.888C198.709 108.144 198.637 108.352 198.493 108.512C198.349 108.656 198.101 108.744 197.749 108.776L197.029 108.848C195.957 108.944 195.157 109.328 194.629 110C194.117 110.656 193.861 111.432 193.861 112.328V118.16C193.861 118.48 193.773 118.72 193.597 118.88C193.421 119.04 193.189 119.12 192.901 119.12C192.613 119.12 192.373 119.04 192.181 118.88C192.005 118.704 191.917 118.464 191.917 118.16V108.032C191.917 107.728 192.013 107.496 192.205 107.336C192.397 107.16 192.629 107.072 192.901 107.072C193.157 107.072 193.373 107.16 193.549 107.336C193.725 107.496 193.813 107.72 193.813 108.008V109.352C194.149 108.648 194.621 108.112 195.229 107.744C195.853 107.376 196.565 107.16 197.365 107.096L197.701 107.072Z" fill="#65B98F"/>
<defs>
<filter id="filter0_d" x="0" y="0" width="285" height="175" filterUnits="userSpaceOnUse" color-interpolation-filters="sRGB">
<feFlood flood-opacity="0" result="BackgroundImageFix"/>
<feColorMatrix in="SourceAlpha" type="matrix" values="0 0 0 0 0 0 0 0 0 0 0 0 0 0 0 0 0 0 127 0"/>
<feOffset dy="11"/>
<feGaussianBlur stdDeviation="6.5"/>
<feColorMatrix type="matrix" values="0 0 0 0 0 0 0 0 0 0 0 0 0 0 0 0 0 0 0.25 0"/>
<feBlend mode="normal" in2="BackgroundImageFix" result="effect1_dropShadow"/>
<feBlend mode="normal" in="SourceGraphic" in2="effect1_dropShadow" result="shape"/>
</filter>
</defs>
</svg>
