<svg width="259" height="149" viewBox="0 0 259 149" fill="none" xmlns="http://www.w3.org/2000/svg">
<path fill-rule="evenodd" clip-rule="evenodd" d="M122.834 0.05972C175.36 -0.649869 236.279 4.54662 253.904 38.3232C272.554 74.062 237.336 110.414 191.746 132.121C149.143 152.406 93.073 155.657 50.8514 135.004C7.81281 113.952 -11.2979 75.6191 6.81601 41.6612C23.3378 10.688 74.5456 0.712058 122.834 0.05972Z" fill="#FAFAFA"/>
<path d="M163.349 39.0959L170.637 53.0922C170.829 53.4616 170.929 53.8719 170.929 54.2881V66.3593H139.85V37.6974H161.041C162.011 37.6974 162.901 38.2366 163.349 39.0959Z" fill="#10B981"/>
<path d="M162.849 50.6492L158.909 43.0837C158.812 42.8961 158.618 42.7786 158.406 42.7786H149.26C148.947 42.7786 148.693 43.032 148.693 43.3447V50.9102C148.693 51.2228 148.947 51.4763 149.26 51.4763H162.345C162.771 51.4761 163.045 51.0259 162.849 50.6492Z" fill="#D1FAE5"/>
<path d="M170.637 53.0922L163.349 39.0959C162.901 38.2366 162.011 37.6974 161.041 37.6974H154.532C155.503 37.6974 156.393 38.2366 156.84 39.0959L164.128 53.0922C164.321 53.4616 164.421 53.8719 164.421 54.2881V66.3593H170.929V54.2881C170.929 53.8719 170.829 53.4616 170.637 53.0922Z" fill="#059669"/>
<path d="M162.849 50.6491L158.909 43.0837C158.812 42.8963 158.618 42.7786 158.406 42.7786H154.117C154.329 42.7786 154.523 42.8961 154.62 43.0837L158.56 50.6491C158.756 51.0258 158.482 51.476 158.056 51.476H162.345C162.771 51.476 163.045 51.0258 162.849 50.6491Z" fill="#A7F3D0"/>
<path d="M146.827 25.343H94.94C94.4874 25.343 94.0799 25.6159 93.9084 26.0336C80.3267 59.133 81.1468 57.0282 81.1468 57.3536V66.3595H98.0725H144.144V30.7791H146.827C147.443 30.7791 147.942 30.2813 147.942 29.6672V26.4551C147.942 25.841 147.443 25.343 146.827 25.343Z" fill="#059669"/>
<path d="M172.257 72.4953H79.743C79.3327 72.4953 79 72.1634 79 71.7541V67.1007C79 66.6913 79.3327 66.3595 79.743 66.3595H172.257C172.667 66.3595 173 66.6913 173 67.1007V71.7541C173 72.1634 172.667 72.4953 172.257 72.4953Z" fill="#34D399"/>
<path d="M172.257 66.3593H165.823C166.234 66.3593 166.566 66.6912 166.566 67.1007V71.7542C166.566 72.1635 166.234 72.4955 165.823 72.4955H172.257C172.667 72.4955 173 72.1637 173 71.7542V67.1007C173 66.6912 172.667 66.3593 172.257 66.3593Z" fill="#10B981"/>
<path d="M87.2445 66.3593H92.4321L108.995 25.343H103.807L87.2445 66.3593Z" fill="#065F46"/>
<path d="M101.638 66.3593H106.826L123.388 25.343H118.201L101.638 66.3593Z" fill="#065F46"/>
<path d="M116.031 66.3593H121.219L137.782 25.343H132.594L116.031 66.3593Z" fill="#065F46"/>
<path d="M98.8593 81.6004C103.9 81.6004 107.987 77.5239 107.987 72.4953C107.987 67.4667 103.9 63.3902 98.8593 63.3902C93.8183 63.3902 89.7318 67.4667 89.7318 72.4953C89.7318 77.5239 93.8183 81.6004 98.8593 81.6004Z" fill="#065F46"/>
<path d="M102.635 73.097C102.973 71.0122 101.554 69.048 99.4635 68.71C97.3733 68.372 95.4043 69.7882 95.0655 71.8731C94.7267 73.958 96.1464 75.9221 98.2365 76.2601C100.327 76.5981 102.296 75.1819 102.635 73.097Z" fill="#A7F3D0"/>
<path d="M121.641 81.6004C126.682 81.6004 130.768 77.5239 130.768 72.4953C130.768 67.4667 126.682 63.3902 121.641 63.3902C116.6 63.3902 112.513 67.4667 112.513 72.4953C112.513 77.5239 116.6 81.6004 121.641 81.6004Z" fill="#065F46"/>
<path d="M125.411 73.0991C125.75 71.0142 124.331 69.05 122.24 68.712C120.15 68.374 118.181 69.7902 117.842 71.8751C117.504 73.96 118.923 75.9241 121.014 76.2621C123.104 76.6001 125.073 75.184 125.411 73.0991Z" fill="#A7F3D0"/>
<path d="M157.058 81.6004C162.099 81.6004 166.186 77.5239 166.186 72.4953C166.186 67.4667 162.099 63.3902 157.058 63.3902C152.017 63.3902 147.931 67.4667 147.931 72.4953C147.931 77.5239 152.017 81.6004 157.058 81.6004Z" fill="#065F46"/>
<path d="M157.058 76.3201C159.176 76.3201 160.893 74.6077 160.893 72.4953C160.893 70.383 159.176 68.6706 157.058 68.6706C154.941 68.6706 153.224 70.383 153.224 72.4953C153.224 74.6077 154.941 76.3201 157.058 76.3201Z" fill="#A7F3D0"/>
<path d="M98.8593 63.3902C98.1203 63.3902 97.4028 63.4801 96.7147 63.6453C100.721 64.6079 103.698 68.2037 103.698 72.4951C103.698 76.7865 100.721 80.3823 96.7147 81.3449C97.4028 81.5103 98.1203 81.6 98.8593 81.6C103.9 81.6 107.987 77.5237 107.987 72.4949C107.987 67.4668 103.9 63.3902 98.8593 63.3902Z" fill="#064E3B"/>
<path d="M119.496 63.6455C123.502 64.6081 126.479 68.2039 126.479 72.4953C126.479 76.7867 123.502 80.3825 119.496 81.3451C120.184 81.5105 120.902 81.6002 121.641 81.6002C126.682 81.6002 130.768 77.5238 130.768 72.4951C130.768 66.6281 125.267 62.2589 119.496 63.6455Z" fill="#064E3B"/>
<path d="M157.058 63.3902C156.319 63.3902 155.602 63.4801 154.914 63.6453C158.92 64.6079 161.897 68.2037 161.897 72.4951C161.897 76.7865 158.92 80.3823 154.914 81.3449C155.602 81.5103 156.319 81.6 157.058 81.6C162.099 81.6 166.186 77.5237 166.186 72.4949C166.186 67.4668 162.099 63.3902 157.058 63.3902Z" fill="#064E3B"/>
<path d="M102.447 28.0171H107.319L108.333 25.343H103.461L102.447 28.0171Z" fill="#026841"/>
<path d="M116.84 28.0171H121.712L122.726 25.343H117.855L116.84 28.0171Z" fill="#026841"/>
<path d="M131.234 28.0171H136.106L137.12 25.343H132.248L131.234 28.0171Z" fill="#026841"/>
<path d="M146.827 25.343H94.94C94.4874 25.343 94.0798 25.6159 93.9084 26.0336L93.0945 28.0171H137.836C138.359 28.0171 138.782 28.4394 138.782 28.9605V66.3593H144.143V30.7791H146.827C147.442 30.7791 147.941 30.2813 147.941 29.6672V26.4551C147.942 25.841 147.443 25.343 146.827 25.343Z" fill="#047857"/>
<path d="M170.93 61.0498H164.678C163.947 61.0498 163.354 60.4584 163.354 59.7292V57.6538C163.354 56.9244 163.947 56.3332 164.678 56.3332H170.93V61.0498Z" fill="#FEC165"/>
<path d="M75.096 127C74.792 127 74.544 126.912 74.352 126.736C74.176 126.56 74.088 126.328 74.088 126.04V111.04C74.088 110.752 74.176 110.52 74.352 110.344C74.544 110.168 74.792 110.08 75.096 110.08H84.072C84.36 110.08 84.584 110.152 84.744 110.296C84.904 110.44 84.984 110.64 84.984 110.896C84.984 111.152 84.904 111.352 84.744 111.496C84.584 111.64 84.36 111.712 84.072 111.712H76.032V117.592H83.592C83.88 117.592 84.104 117.664 84.264 117.808C84.424 117.952 84.504 118.152 84.504 118.408C84.504 118.664 84.424 118.864 84.264 119.008C84.104 119.152 83.88 119.224 83.592 119.224H76.032V125.368H84.072C84.36 125.368 84.584 125.44 84.744 125.584C84.904 125.712 84.984 125.912 84.984 126.184C84.984 126.44 84.904 126.64 84.744 126.784C84.584 126.928 84.36 127 84.072 127H75.096ZM100.777 115.024C103.369 115.024 104.665 116.568 104.665 119.656V126.16C104.665 126.464 104.577 126.704 104.401 126.88C104.225 127.04 103.993 127.12 103.705 127.12C103.417 127.12 103.177 127.04 102.985 126.88C102.809 126.704 102.721 126.464 102.721 126.16V119.704C102.721 118.632 102.529 117.856 102.145 117.376C101.761 116.896 101.161 116.656 100.345 116.656C99.3688 116.656 98.6008 116.984 98.0408 117.64C97.4808 118.296 97.2008 119.184 97.2008 120.304V126.16C97.2008 126.464 97.1048 126.704 96.9128 126.88C96.7368 127.04 96.5048 127.12 96.2168 127.12C95.9288 127.12 95.6968 127.04 95.5208 126.88C95.3448 126.704 95.2568 126.464 95.2568 126.16V119.704C95.2568 118.632 95.0648 117.856 94.6808 117.376C94.2968 116.896 93.6888 116.656 92.8568 116.656C91.8968 116.656 91.1288 116.984 90.5528 117.64C89.9928 118.296 89.7128 119.184 89.7128 120.304V126.16C89.7128 126.464 89.6248 126.704 89.4488 126.88C89.2728 127.04 89.0408 127.12 88.7528 127.12C88.4648 127.12 88.2248 127.04 88.0328 126.88C87.8568 126.704 87.7688 126.464 87.7688 126.16V116.032C87.7688 115.744 87.8568 115.512 88.0328 115.336C88.2248 115.16 88.4648 115.072 88.7528 115.072C89.0248 115.072 89.2488 115.16 89.4248 115.336C89.6008 115.496 89.6888 115.72 89.6888 116.008V117.16C90.0408 116.472 90.5288 115.944 91.1528 115.576C91.7768 115.208 92.4968 115.024 93.3128 115.024C95.1368 115.024 96.3288 115.792 96.8888 117.328C97.2248 116.624 97.7368 116.064 98.4248 115.648C99.1128 115.232 99.8968 115.024 100.777 115.024ZM114.086 115.024C115.11 115.024 116.014 115.28 116.798 115.792C117.582 116.304 118.19 117.024 118.622 117.952C119.054 118.864 119.27 119.928 119.27 121.144C119.27 122.36 119.054 123.424 118.622 124.336C118.19 125.232 117.582 125.928 116.798 126.424C116.03 126.92 115.126 127.168 114.086 127.168C113.174 127.168 112.374 126.968 111.686 126.568C111.014 126.168 110.502 125.6 110.15 124.864V130.504C110.15 130.792 110.062 131.016 109.886 131.176C109.726 131.352 109.494 131.44 109.19 131.44C108.886 131.44 108.646 131.352 108.47 131.176C108.294 131 108.206 130.776 108.206 130.504V116.032C108.206 115.744 108.294 115.512 108.47 115.336C108.646 115.16 108.886 115.072 109.19 115.072C109.494 115.072 109.726 115.16 109.886 115.336C110.062 115.512 110.15 115.744 110.15 116.032V117.328C110.502 116.592 111.014 116.024 111.686 115.624C112.374 115.224 113.174 115.024 114.086 115.024ZM113.702 125.56C114.838 125.56 115.718 125.176 116.342 124.408C116.966 123.64 117.278 122.552 117.278 121.144C117.278 119.736 116.966 118.64 116.342 117.856C115.718 117.056 114.838 116.656 113.702 116.656C112.566 116.656 111.686 117.04 111.062 117.808C110.454 118.576 110.15 119.672 110.15 121.096C110.15 122.52 110.454 123.624 111.062 124.408C111.686 125.176 112.566 125.56 113.702 125.56ZM123.159 127.12C122.871 127.12 122.631 127.04 122.439 126.88C122.263 126.704 122.175 126.464 122.175 126.16V110.92C122.175 110.616 122.263 110.384 122.439 110.224C122.631 110.048 122.871 109.96 123.159 109.96C123.431 109.96 123.655 110.048 123.831 110.224C124.023 110.384 124.119 110.616 124.119 110.92V126.16C124.119 126.464 124.023 126.704 123.831 126.88C123.655 127.04 123.431 127.12 123.159 127.12ZM136.801 124.288C136.977 124.288 137.129 124.36 137.257 124.504C137.385 124.648 137.449 124.832 137.449 125.056C137.449 125.456 137.169 125.824 136.609 126.16C136.033 126.496 135.425 126.752 134.785 126.928C134.145 127.088 133.521 127.168 132.913 127.168C131.105 127.168 129.673 126.632 128.617 125.56C127.577 124.488 127.057 123.008 127.057 121.12C127.057 119.92 127.289 118.864 127.753 117.952C128.217 117.024 128.865 116.304 129.697 115.792C130.545 115.28 131.505 115.024 132.577 115.024C134.097 115.024 135.305 115.52 136.201 116.512C137.097 117.504 137.545 118.848 137.545 120.544C137.545 120.864 137.481 121.096 137.353 121.24C137.225 121.384 137.017 121.456 136.729 121.456H129.001C129.145 124.208 130.449 125.584 132.913 125.584C133.537 125.584 134.073 125.504 134.521 125.344C134.969 125.168 135.449 124.936 135.961 124.648C136.377 124.408 136.657 124.288 136.801 124.288ZM132.601 116.536C131.577 116.536 130.753 116.856 130.129 117.496C129.521 118.136 129.161 119.04 129.049 120.208H135.841C135.809 119.024 135.513 118.12 134.953 117.496C134.393 116.856 133.609 116.536 132.601 116.536ZM145.185 115.024C148.113 115.024 149.577 116.56 149.577 119.632V126.16C149.577 126.448 149.489 126.68 149.313 126.856C149.153 127.032 148.929 127.12 148.641 127.12C148.353 127.12 148.121 127.032 147.945 126.856C147.769 126.68 147.681 126.448 147.681 126.16V125.008C147.377 125.696 146.913 126.232 146.289 126.616C145.665 126.984 144.945 127.168 144.129 127.168C143.377 127.168 142.681 127.016 142.041 126.712C141.417 126.408 140.921 125.984 140.553 125.44C140.185 124.896 140.001 124.296 140.001 123.64C140.001 122.76 140.225 122.08 140.673 121.6C141.121 121.104 141.857 120.752 142.881 120.544C143.905 120.32 145.329 120.208 147.153 120.208H147.681V119.416C147.681 118.456 147.481 117.752 147.081 117.304C146.697 116.856 146.065 116.632 145.185 116.632C144.097 116.632 142.993 116.928 141.873 117.52C141.441 117.792 141.137 117.928 140.961 117.928C140.769 117.928 140.609 117.856 140.481 117.712C140.353 117.568 140.289 117.384 140.289 117.16C140.289 116.936 140.353 116.744 140.481 116.584C140.625 116.408 140.849 116.232 141.153 116.056C141.713 115.736 142.345 115.488 143.049 115.312C143.769 115.12 144.481 115.024 145.185 115.024ZM144.393 125.632C145.353 125.632 146.137 125.312 146.745 124.672C147.369 124.016 147.681 123.176 147.681 122.152V121.456H147.249C145.841 121.456 144.769 121.52 144.033 121.648C143.297 121.76 142.769 121.96 142.449 122.248C142.145 122.52 141.993 122.928 141.993 123.472C141.993 124.096 142.217 124.616 142.665 125.032C143.129 125.432 143.705 125.632 144.393 125.632ZM162.52 109.96C162.824 109.96 163.064 110.048 163.24 110.224C163.416 110.4 163.504 110.624 163.504 110.896V126.16C163.504 126.448 163.416 126.68 163.24 126.856C163.064 127.032 162.824 127.12 162.52 127.12C162.216 127.12 161.976 127.032 161.8 126.856C161.64 126.68 161.56 126.448 161.56 126.16V124.864C161.208 125.6 160.688 126.168 160 126.568C159.328 126.968 158.536 127.168 157.624 127.168C156.6 127.168 155.696 126.912 154.912 126.4C154.128 125.888 153.52 125.176 153.088 124.264C152.656 123.336 152.44 122.264 152.44 121.048C152.44 119.848 152.656 118.792 153.088 117.88C153.52 116.968 154.128 116.264 154.912 115.768C155.696 115.272 156.6 115.024 157.624 115.024C158.536 115.024 159.328 115.224 160 115.624C160.688 116.024 161.208 116.592 161.56 117.328V110.896C161.56 110.608 161.64 110.384 161.8 110.224C161.976 110.048 162.216 109.96 162.52 109.96ZM158.008 125.56C159.144 125.56 160.016 125.176 160.624 124.408C161.248 123.624 161.56 122.52 161.56 121.096C161.56 119.672 161.248 118.576 160.624 117.808C160.016 117.04 159.144 116.656 158.008 116.656C156.872 116.656 155.984 117.04 155.344 117.808C154.72 118.576 154.408 119.656 154.408 121.048C154.408 122.472 154.72 123.584 155.344 124.384C155.984 125.168 156.872 125.56 158.008 125.56ZM171.953 127.168C170.849 127.168 169.873 126.92 169.025 126.424C168.193 125.928 167.545 125.224 167.081 124.312C166.633 123.384 166.409 122.312 166.409 121.096C166.409 119.88 166.633 118.816 167.081 117.904C167.545 116.976 168.193 116.264 169.025 115.768C169.873 115.272 170.849 115.024 171.953 115.024C173.057 115.024 174.033 115.272 174.881 115.768C175.729 116.264 176.377 116.976 176.825 117.904C177.289 118.816 177.521 119.88 177.521 121.096C177.521 122.312 177.289 123.384 176.825 124.312C176.377 125.224 175.729 125.928 174.881 126.424C174.033 126.92 173.057 127.168 171.953 127.168ZM171.953 125.56C173.105 125.56 173.985 125.184 174.593 124.432C175.217 123.664 175.529 122.552 175.529 121.096C175.529 119.672 175.217 118.576 174.593 117.808C173.969 117.024 173.089 116.632 171.953 116.632C170.817 116.632 169.937 117.024 169.313 117.808C168.689 118.576 168.377 119.672 168.377 121.096C168.377 122.536 168.681 123.64 169.289 124.408C169.913 125.176 170.801 125.56 171.953 125.56Z" fill="#65B98F"/>
</svg>
