<svg width="140" height="35" viewBox="0 0 140 35" fill="none" xmlns="http://www.w3.org/2000/svg">
<rect width="133" height="35" rx="9" transform="matrix(-1 0 0 1 137 0)" fill="#FAFAFA"/>
<path d="M35.834 19.6846C35.7565 20.7555 35.36 21.5986 34.6445 22.2139C33.9336 22.8291 32.9948 23.1367 31.8281 23.1367C30.5521 23.1367 29.5472 22.7083 28.8135 21.8516C28.0843 20.9902 27.7197 19.8099 27.7197 18.3105V17.7021C27.7197 16.7451 27.8883 15.902 28.2256 15.1729C28.5628 14.4437 29.0436 13.8854 29.668 13.498C30.2969 13.1061 31.026 12.9102 31.8555 12.9102C33.0039 12.9102 33.929 13.2178 34.6309 13.833C35.3327 14.4482 35.7383 15.3118 35.8477 16.4238H33.7969C33.7467 15.7812 33.5667 15.3164 33.2568 15.0293C32.9515 14.7376 32.4844 14.5918 31.8555 14.5918C31.1719 14.5918 30.6592 14.8379 30.3174 15.3301C29.9801 15.8177 29.807 16.5765 29.7979 17.6064V18.3584C29.7979 19.4339 29.9596 20.2201 30.2832 20.7168C30.6113 21.2135 31.1263 21.4619 31.8281 21.4619C32.4616 21.4619 32.9333 21.3184 33.2432 21.0312C33.5576 20.7396 33.7376 20.2907 33.7832 19.6846H35.834ZM40.4551 23.1367C39.3704 23.1367 38.4863 22.804 37.8027 22.1387C37.1237 21.4733 36.7842 20.5869 36.7842 19.4795V19.2881C36.7842 18.5452 36.9277 17.8822 37.2148 17.2988C37.502 16.7109 37.9076 16.2598 38.4316 15.9453C38.9603 15.6263 39.5618 15.4668 40.2363 15.4668C41.248 15.4668 42.0433 15.7858 42.6221 16.4238C43.2054 17.0618 43.4971 17.9665 43.4971 19.1377V19.9443H38.7871C38.8509 20.4274 39.0423 20.8148 39.3613 21.1064C39.6849 21.3981 40.0928 21.5439 40.585 21.5439C41.346 21.5439 41.9408 21.2682 42.3691 20.7168L43.3398 21.8037C43.0436 22.223 42.6426 22.5511 42.1367 22.7881C41.6309 23.0205 41.0703 23.1367 40.4551 23.1367ZM40.2295 17.0664C39.8376 17.0664 39.5186 17.1986 39.2725 17.4629C39.0309 17.7272 38.876 18.1055 38.8076 18.5977H41.5557V18.4404C41.5465 18.0029 41.4281 17.6657 41.2002 17.4287C40.9723 17.1872 40.6488 17.0664 40.2295 17.0664ZM48.7812 17.4561C48.5124 17.4196 48.2754 17.4014 48.0703 17.4014C47.3229 17.4014 46.833 17.6543 46.6006 18.1602V23H44.625V15.6035H46.4912L46.5459 16.4854C46.9424 15.8063 47.4915 15.4668 48.1934 15.4668C48.4121 15.4668 48.6172 15.4964 48.8086 15.5557L48.7812 17.4561ZM53.8945 17.4561C53.6257 17.4196 53.3887 17.4014 53.1836 17.4014C52.4362 17.4014 51.9463 17.6543 51.7139 18.1602V23H49.7383V15.6035H51.6045L51.6592 16.4854C52.0557 15.8063 52.6048 15.4668 53.3066 15.4668C53.5254 15.4668 53.7305 15.4964 53.9219 15.5557L53.8945 17.4561ZM58.9326 23C58.8415 22.8223 58.7754 22.6012 58.7344 22.3369C58.2559 22.8701 57.6338 23.1367 56.8682 23.1367C56.1436 23.1367 55.542 22.9271 55.0635 22.5078C54.5895 22.0885 54.3525 21.5599 54.3525 20.9219C54.3525 20.138 54.6419 19.5365 55.2207 19.1172C55.804 18.6979 56.6449 18.486 57.7432 18.4814H58.6523V18.0576C58.6523 17.7158 58.5635 17.4424 58.3857 17.2373C58.2126 17.0322 57.9368 16.9297 57.5586 16.9297C57.2259 16.9297 56.9639 17.0094 56.7725 17.1689C56.5856 17.3285 56.4922 17.5472 56.4922 17.8252H54.5166C54.5166 17.3968 54.6488 17.0003 54.9131 16.6357C55.1774 16.2712 55.5511 15.9863 56.0342 15.7812C56.5173 15.5716 57.0596 15.4668 57.6611 15.4668C58.5726 15.4668 59.2949 15.6969 59.8281 16.1572C60.3659 16.613 60.6348 17.2555 60.6348 18.085V21.291C60.6393 21.9928 60.7373 22.5238 60.9287 22.8838V23H58.9326ZM57.2988 21.626C57.5905 21.626 57.8594 21.5622 58.1055 21.4346C58.3516 21.3024 58.5339 21.127 58.6523 20.9082V19.6367H57.9141C56.9251 19.6367 56.3988 19.9785 56.335 20.6621L56.3281 20.7783C56.3281 21.0244 56.4147 21.2272 56.5879 21.3867C56.7611 21.5462 56.998 21.626 57.2988 21.626ZM66.3086 17.4561C66.0397 17.4196 65.8027 17.4014 65.5977 17.4014C64.8503 17.4014 64.3604 17.6543 64.1279 18.1602V23H62.1523V15.6035H64.0186L64.0732 16.4854C64.4697 15.8063 65.0189 15.4668 65.7207 15.4668C65.9395 15.4668 66.1445 15.4964 66.3359 15.5557L66.3086 17.4561ZM76.043 20.3887C76.043 20.0013 75.9062 19.7051 75.6328 19.5C75.3594 19.2904 74.8672 19.0716 74.1562 18.8438C73.4453 18.6113 72.8825 18.3835 72.4678 18.1602C71.3376 17.5495 70.7725 16.7269 70.7725 15.6924C70.7725 15.1546 70.9229 14.6761 71.2236 14.2568C71.529 13.833 71.9642 13.5026 72.5293 13.2656C73.099 13.0286 73.737 12.9102 74.4434 12.9102C75.1543 12.9102 75.7878 13.04 76.3438 13.2998C76.8997 13.555 77.3304 13.9173 77.6357 14.3867C77.9456 14.8561 78.1006 15.3893 78.1006 15.9863H76.0498C76.0498 15.5306 75.9062 15.1774 75.6191 14.9268C75.332 14.6715 74.9287 14.5439 74.4092 14.5439C73.9079 14.5439 73.5182 14.651 73.2402 14.8652C72.9622 15.0749 72.8232 15.3529 72.8232 15.6992C72.8232 16.0228 72.985 16.2939 73.3086 16.5127C73.6367 16.7314 74.1175 16.9365 74.751 17.1279C75.9176 17.4788 76.7676 17.9141 77.3008 18.4336C77.834 18.9531 78.1006 19.6003 78.1006 20.375C78.1006 21.2363 77.7747 21.9131 77.123 22.4053C76.4714 22.8929 75.5941 23.1367 74.4912 23.1367C73.7256 23.1367 73.0283 22.9977 72.3994 22.7197C71.7705 22.4372 71.2897 22.0521 70.957 21.5645C70.6289 21.0768 70.4648 20.5117 70.4648 19.8691H72.5225C72.5225 20.9674 73.1787 21.5166 74.4912 21.5166C74.9788 21.5166 75.3594 21.4186 75.6328 21.2227C75.9062 21.0221 76.043 20.7441 76.043 20.3887ZM82.7695 23.1367C81.6849 23.1367 80.8008 22.804 80.1172 22.1387C79.4382 21.4733 79.0986 20.5869 79.0986 19.4795V19.2881C79.0986 18.5452 79.2422 17.8822 79.5293 17.2988C79.8164 16.7109 80.222 16.2598 80.7461 15.9453C81.2747 15.6263 81.8763 15.4668 82.5508 15.4668C83.5625 15.4668 84.3577 15.7858 84.9365 16.4238C85.5199 17.0618 85.8115 17.9665 85.8115 19.1377V19.9443H81.1016C81.1654 20.4274 81.3568 20.8148 81.6758 21.1064C81.9993 21.3981 82.4072 21.5439 82.8994 21.5439C83.6605 21.5439 84.2552 21.2682 84.6836 20.7168L85.6543 21.8037C85.3581 22.223 84.957 22.5511 84.4512 22.7881C83.9453 23.0205 83.3848 23.1367 82.7695 23.1367ZM82.5439 17.0664C82.152 17.0664 81.833 17.1986 81.5869 17.4629C81.3454 17.7272 81.1904 18.1055 81.1221 18.5977H83.8701V18.4404C83.861 18.0029 83.7425 17.6657 83.5146 17.4287C83.2868 17.1872 82.9632 17.0664 82.5439 17.0664ZM90.9453 20.9561C90.9453 20.7145 90.8245 20.5254 90.583 20.3887C90.346 20.2474 89.9632 20.1221 89.4346 20.0127C87.6755 19.6436 86.7959 18.8962 86.7959 17.7705C86.7959 17.1143 87.0671 16.5674 87.6094 16.1299C88.1562 15.6878 88.8695 15.4668 89.749 15.4668C90.6878 15.4668 91.4375 15.6878 91.998 16.1299C92.5632 16.5719 92.8457 17.1462 92.8457 17.8525H90.8701C90.8701 17.57 90.779 17.3376 90.5967 17.1553C90.4144 16.9684 90.1296 16.875 89.7422 16.875C89.4095 16.875 89.152 16.9502 88.9697 17.1006C88.7874 17.251 88.6963 17.4424 88.6963 17.6748C88.6963 17.8936 88.7988 18.0713 89.0039 18.208C89.2135 18.3402 89.5645 18.4564 90.0566 18.5566C90.5488 18.6523 90.9635 18.7617 91.3008 18.8848C92.3444 19.2676 92.8662 19.9307 92.8662 20.874C92.8662 21.5485 92.5768 22.0954 91.998 22.5146C91.4193 22.9294 90.6719 23.1367 89.7559 23.1367C89.1361 23.1367 88.5846 23.0273 88.1016 22.8086C87.623 22.5853 87.2471 22.2822 86.9736 21.8994C86.7002 21.512 86.5635 21.0951 86.5635 20.6484H88.4365C88.4548 20.9993 88.5846 21.2682 88.8262 21.4551C89.0677 21.6419 89.3913 21.7354 89.7969 21.7354C90.1751 21.7354 90.46 21.6647 90.6514 21.5234C90.8473 21.3776 90.9453 21.1885 90.9453 20.9561ZM96.2295 23H94.2471V15.6035H96.2295V23ZM94.1309 13.6895C94.1309 13.3932 94.2288 13.1494 94.4248 12.958C94.6253 12.7666 94.8965 12.6709 95.2383 12.6709C95.5755 12.6709 95.8444 12.7666 96.0449 12.958C96.2454 13.1494 96.3457 13.3932 96.3457 13.6895C96.3457 13.9902 96.2432 14.2363 96.0381 14.4277C95.8376 14.6191 95.571 14.7148 95.2383 14.7148C94.9056 14.7148 94.6367 14.6191 94.4316 14.4277C94.2311 14.2363 94.1309 13.9902 94.1309 13.6895ZM97.5557 19.2334C97.5557 18.4997 97.6969 17.8457 97.9795 17.2715C98.262 16.6973 98.6676 16.2529 99.1963 15.9385C99.7295 15.624 100.347 15.4668 101.049 15.4668C102.047 15.4668 102.86 15.7721 103.489 16.3828C104.123 16.9935 104.476 17.8229 104.549 18.8711L104.562 19.377C104.562 20.5117 104.246 21.4232 103.612 22.1113C102.979 22.7949 102.129 23.1367 101.062 23.1367C99.9961 23.1367 99.1439 22.7949 98.5059 22.1113C97.8724 21.4277 97.5557 20.498 97.5557 19.3223V19.2334ZM99.5312 19.377C99.5312 20.0788 99.6634 20.6165 99.9277 20.9902C100.192 21.3594 100.57 21.5439 101.062 21.5439C101.541 21.5439 101.915 21.3617 102.184 20.9971C102.452 20.6279 102.587 20.04 102.587 19.2334C102.587 18.5452 102.452 18.012 102.184 17.6338C101.915 17.2555 101.536 17.0664 101.049 17.0664C100.566 17.0664 100.192 17.2555 99.9277 17.6338C99.6634 18.0075 99.5312 18.5885 99.5312 19.377ZM101.438 12.5H103.592L101.698 14.6191H100.092L101.438 12.5ZM107.598 15.6035L107.659 16.458C108.188 15.7972 108.896 15.4668 109.785 15.4668C110.569 15.4668 111.152 15.6969 111.535 16.1572C111.918 16.6175 112.114 17.3057 112.123 18.2217V23H110.147V18.2695C110.147 17.8503 110.056 17.5472 109.874 17.3604C109.692 17.1689 109.389 17.0732 108.965 17.0732C108.409 17.0732 107.992 17.3102 107.714 17.7842V23H105.738V15.6035H107.598Z" fill="#65B98F"/>
</svg>
