<svg width="97" height="98" viewBox="0 0 97 98" fill="none" xmlns="http://www.w3.org/2000/svg">
<path d="M50.2515 93.1274L74.3552 27.7618C74.8618 26.3876 74.5229 24.8443 73.4873 23.8086C72.4516 22.773 70.9083 22.4341 69.5341 22.9407L4.1689 47.044C2.71578 47.5801 1.74067 48.9536 1.71413 50.5015C1.68795 52.0505 2.61637 53.4566 4.04932 54.0411L31.8924 65.4028L43.2541 93.2459C43.4466 93.7179 43.7286 94.135 44.0746 94.4811C44.7805 95.1869 45.7549 95.5981 46.7944 95.5804C48.3423 95.5559 49.7155 94.5805 50.2515 93.1274Z" fill="#65B98F"/>
<path d="M44.0749 94.4824C44.7807 95.1882 45.7551 95.5994 46.7946 95.5817C48.3433 95.5551 49.7168 94.58 50.2521 93.1269L55.219 79.6572L44.3282 52.9678L17.6385 42.0767L4.16879 47.0436C2.71567 47.5796 1.74056 48.9531 1.71403 50.501C1.68784 52.05 2.61625 53.4561 4.0492 54.0406L31.8923 65.4023L43.254 93.2454C43.4465 93.7188 43.7285 94.136 44.0749 94.4824Z" fill="#549876"/>
</svg>
