<svg width="110" height="110" viewBox="0 0 110 110" fill="none" xmlns="http://www.w3.org/2000/svg">
<circle cx="55" cy="55" r="55" fill="white"/>
<path d="M64.2128 26.1521L63.0345 23.2064H63.0229C63.0224 23.1581 63.0106 23.1106 62.9883 23.0678C62.584 21.9126 59.1415 21 54.9483 21C50.755 21 47.3126 21.9126 46.9083 23.0678C46.886 23.1106 46.8741 23.1581 46.8736 23.2064L45.6838 26.1521C38.1867 27.0762 33 29.0862 33 31.3966V82.2241C33 85.4124 42.8305 88 54.9483 88C67.066 88 76.8965 85.4124 76.8965 82.2241V31.3966C76.8965 29.0862 71.7098 27.0762 64.2128 26.1521Z" fill="#3F5C6C"/>
<path d="M76.8965 31.3966C76.8965 34.5848 67.066 37.1724 54.9483 37.1724C42.8305 37.1724 33 34.5848 33 31.3966C33 29.0862 38.1867 27.0762 45.6838 26.1521L44.621 28.7974C44.5635 28.9078 44.5511 29.0362 44.5864 29.1555C44.9907 30.4031 49.4843 31.3966 54.9483 31.3966C60.4122 31.3966 64.9059 30.4031 65.3102 29.1555C65.3454 29.0362 65.333 28.9078 65.2755 28.7974L64.2128 26.1521C71.7098 27.0762 76.8965 29.0862 76.8965 31.3966Z" fill="#3D4E57"/>
<path d="M76.8965 47.569V53.3448C76.8965 56.5331 67.066 59.1207 54.9483 59.1207C42.8305 59.1207 33 56.5331 33 53.3448V47.569C33 50.7572 42.8305 53.3448 54.9483 53.3448C67.066 53.3448 76.8965 50.7572 76.8965 47.569Z" fill="#3F5C6C"/>
<path d="M76.8965 31.3966V47.569C76.8965 50.7572 67.066 53.3448 54.9483 53.3448C42.8305 53.3448 33 50.7572 33 47.569V31.3966C33 34.5848 42.8305 37.1724 54.9483 37.1724C67.066 37.1724 76.8965 34.5848 76.8965 31.3966Z" fill="#3F5C6C"/>
<path d="M63.0344 23.3103C63.0344 24.5926 59.4303 25.6207 54.9598 25.6207H54.9482C50.4777 25.6207 46.862 24.5926 46.862 23.3103C46.8602 23.2753 46.8641 23.2402 46.8736 23.2064C46.8741 23.1581 46.886 23.1106 46.9082 23.0678C47.3125 21.9126 50.755 21 54.9482 21C59.1415 21 62.5839 21.9126 62.9882 23.0678C63.0105 23.1106 63.0224 23.1581 63.0229 23.2064C63.0324 23.2402 63.0363 23.2753 63.0344 23.3103Z" fill="#BDC3C7"/>
<path d="M65.3101 29.1555C64.9058 30.4031 60.4122 31.3966 54.9482 31.3966C49.4843 31.3966 44.9906 30.4031 44.5863 29.1555C44.5511 29.0362 44.5635 28.9078 44.621 28.7974L45.6837 26.1521L46.8736 23.2064C46.864 23.2402 46.8601 23.2753 46.862 23.3103C46.862 24.5926 50.4777 25.6207 54.9482 25.6207H54.9598C59.4303 25.6207 63.0344 24.5926 63.0344 23.3103C63.0363 23.2753 63.0324 23.2402 63.0229 23.2064H63.0344L64.2127 26.1521L65.2755 28.7974C65.333 28.9078 65.3454 29.0362 65.3101 29.1555V29.1555Z" fill="#7F8C8D"/>
<path d="M55.3024 49.8472L49.5225 61.8465H52.3534L46.5735 73.1111L60.0206 58.5406H56.246L63.3235 49.8472H55.3024Z" fill="#EBAC40"/>
</svg>
