<svg width="129" height="136" viewBox="0 0 129 136" fill="none" xmlns="http://www.w3.org/2000/svg">
<circle cx="55" cy="55" r="55" fill="#ECFFF2"/>
<path d="M69.2164 36.5453L61.3818 32.4564L65.4744 27.0084C66.2167 26.0202 67.565 25.7149 68.6606 26.2867L70.1156 27.046C71.2111 27.6178 71.7316 28.8987 71.3456 30.0726L69.2164 36.5453Z" fill="#A67E74"/>
<path d="M14.1805 69.2675C17.0499 76.2287 23.8356 80.771 31.3649 80.771H38.1876C43.4368 80.771 48.3939 78.3551 51.6282 74.2208C52.5878 72.9941 54.4217 72.9296 55.4654 74.0857C59.3072 78.342 64.7723 80.7712 70.506 80.7712H73.1961C81.8775 80.7712 89.9588 76.3422 94.6296 69.0243C95.8479 67.1156 93.8435 64.7891 91.7755 65.7114L86.7676 67.9451C85.027 68.7214 83.1425 69.1226 81.2368 69.1226C74.57 69.1226 68.8894 64.282 67.8315 57.6997C67.4559 55.3626 67.7286 52.9674 68.6201 50.7745L70.7022 45.6532C73.4257 38.9542 68.2854 31.6897 61.062 32.0288C57.7241 32.1854 54.69 34.0147 52.9933 36.8935L37.8941 62.5113C35.4306 66.6911 30.9405 69.2566 26.0886 69.2566C23.7596 69.2566 21.4693 68.6631 19.4336 67.532L17.3997 66.4021C15.5111 65.3529 13.3572 67.2703 14.1805 69.2675Z" fill="#FADA6D"/>
<path d="M55.4652 74.0856C59.307 78.3419 64.7723 80.7711 70.5059 80.7711H73.196C80.5874 80.7711 87.5423 77.5586 92.3292 72.0879C53.6842 87.0859 48.4815 52.5032 53.6354 35.9395C53.4051 36.2433 53.1893 36.5603 52.9931 36.8932L37.8939 62.511C35.4304 66.6909 30.9403 69.2563 26.0884 69.2563C23.7595 69.2563 21.4692 68.6629 19.4334 67.5317L17.3996 66.4018C15.5113 65.3528 13.3572 67.2702 14.1805 69.2674C17.0499 76.2286 23.8356 80.7709 31.3649 80.7709H38.1876C43.4367 80.7709 48.3939 78.355 51.6282 74.2207C52.5877 72.994 54.4217 72.9294 55.4652 74.0856Z" fill="#F2C55A"/>
<path d="M53.3916 70.5195C52.7363 70.5195 52.2051 69.9883 52.2051 69.333C52.2051 66.0228 53.1807 58.2332 56.8373 50.0359C57.1045 49.4374 57.8059 49.1688 58.4043 49.4357C59.0026 49.7027 59.2714 50.4042 59.0045 51.0027C55.5104 58.8358 54.5781 66.2104 54.5781 69.3332C54.5781 69.9883 54.0469 70.5195 53.3916 70.5195Z" fill="#EBAC40"/>
<path d="M35.7517 80.7711C36.1485 80.2297 36.4196 79.5383 36.5834 78.7018C37.0455 76.3398 35.351 74.4914 32.4244 74.6455C29.4978 74.7995 28.9843 75.7238 27.9574 76.7507C27.3537 77.3544 27.1947 79.1647 28.3559 80.5236C29.3404 80.685 30.3454 80.7711 31.3651 80.7711H35.7517Z" fill="#EBAC40"/>
<path d="M75.4649 68.1808C75.4971 68.0736 75.5228 67.971 75.5452 67.8706C73.7838 67.0562 72.2207 65.8739 70.9589 64.4131C68.5897 64.0921 66.5987 64.9448 67.3642 67.0873C68.1003 69.1478 66.6039 70.7924 71.1503 70.5611C73.6343 70.4349 74.7371 70.5936 75.4649 68.1808Z" fill="#EBAC40"/>
<path d="M45.4621 61.1126C45.1585 61.1126 44.8548 60.9967 44.6232 60.7651C44.1598 60.3017 44.1598 59.5504 44.6232 59.087L46.2671 57.4431C46.7304 56.9797 47.4817 56.9797 47.9449 57.4431C48.4083 57.9065 48.4083 58.6578 47.9449 59.1212L46.3011 60.7651C46.0693 60.9968 45.7657 61.1126 45.4621 61.1126Z" fill="#EBAC40"/>
<path d="M44.6899 66.193C44.3863 66.193 44.0826 66.0772 43.851 65.8454C43.3876 65.3821 43.3876 64.6308 43.851 64.1674L45.4452 62.5732C45.9085 62.1098 46.6598 62.1098 47.1231 62.5732C47.5864 63.0365 47.5864 63.7878 47.1231 64.2511L45.5289 65.8453C45.2972 66.077 44.9935 66.193 44.6899 66.193Z" fill="#EBAC40"/>
<g filter="url(#filter0_d)">
<circle cx="92" cy="99" r="27" fill="white"/>
<path d="M106.241 92.2192L89.4129 109.552C88.9081 110.072 88.2454 110.333 87.5826 110.333C86.9199 110.333 86.2572 110.072 85.7524 109.552L77.3385 100.885C76.326 99.843 76.326 98.1575 77.3385 97.115C78.3506 96.0721 79.9865 96.0721 80.9991 97.115L87.5826 103.896L102.581 88.4489C103.593 87.4059 105.229 87.4059 106.241 88.4489C107.253 89.4913 107.253 91.1763 106.241 92.2192Z" fill="#00B965"/>
</g>
<defs>
<filter id="filter0_d" x="55" y="62" width="74" height="74" filterUnits="userSpaceOnUse" color-interpolation-filters="sRGB">
<feFlood flood-opacity="0" result="BackgroundImageFix"/>
<feColorMatrix in="SourceAlpha" type="matrix" values="0 0 0 0 0 0 0 0 0 0 0 0 0 0 0 0 0 0 127 0"/>
<feMorphology radius="2" operator="dilate" in="SourceAlpha" result="effect1_dropShadow"/>
<feOffset/>
<feGaussianBlur stdDeviation="4"/>
<feColorMatrix type="matrix" values="0 0 0 0 0 0 0 0 0 0.72549 0 0 0 0 0.396078 0 0 0 0.2 0"/>
<feBlend mode="normal" in2="BackgroundImageFix" result="effect1_dropShadow"/>
<feBlend mode="normal" in="SourceGraphic" in2="effect1_dropShadow" result="shape"/>
</filter>
</defs>
</svg>
