<svg width="110" height="110" viewBox="0 0 110 110" fill="none" xmlns="http://www.w3.org/2000/svg">
<circle cx="55" cy="55" r="55" fill="white"/>
<path d="M67.7429 34.9146H63.3706V25.4897C63.3706 24.322 62.4209 23.3723 61.2532 23.3723H49.0431C47.8754 23.3723 46.9257 24.322 46.9257 25.4897V34.9146H42.5535V25.4897C42.5535 21.9115 45.4644 19 49.0431 19H61.2532C64.8313 19 67.7429 21.9115 67.7429 25.4897V34.9146Z" fill="#00B965"/>
<path d="M62.9081 19.2146C64.3225 20.4061 65.2231 22.1885 65.2231 24.1779V34.9146H67.7428V25.4896C67.7428 22.4832 65.6872 19.9486 62.9081 19.2146V19.2146Z" fill="#00A855"/>
<path d="M73.0372 91.3311H37.259C33.8023 91.3311 31 88.5288 31 85.0721V33.6338C31 32.6255 31.8173 31.8083 32.8255 31.8083H77.4707C78.4789 31.8083 79.2962 32.6255 79.2962 33.6338V85.0721C79.2962 88.5288 76.4939 91.3311 73.0372 91.3311Z" fill="#92DFB7"/>
<path d="M77.4127 31.8083H69.9143V80.3726C69.9143 83.9386 67.0238 86.8292 63.4577 86.8292H31.3019C32.1307 89.4394 34.5721 91.3311 37.4566 91.3311H72.8396C76.4056 91.3311 79.2962 88.44 79.2962 84.8745V33.6917C79.2962 32.6515 78.453 31.8083 77.4127 31.8083V31.8083Z" fill="#6FD6A2"/>
<path d="M71.4765 63.1645L70.7172 61.8936C70.5417 61.6001 70.1615 61.504 69.8679 61.6795L66.8543 63.4796C66.5607 63.6551 66.4647 64.0353 66.6401 64.3289L67.3995 65.5998C68.0391 66.6709 68.0667 67.9534 67.4773 69.0466C66.8559 70.1994 65.6192 70.8865 64.3097 70.8865H61.2509C61.0759 70.8865 60.9346 70.7446 60.9346 70.5697V68.0207C60.9346 67.4584 60.2995 67.1301 59.8409 67.4557L52.4589 72.696C52.0699 72.9719 52.0699 73.5497 52.4589 73.8256L59.8409 79.0659C60.2995 79.3915 60.9346 79.0631 60.9346 78.5008V75.9518C60.9346 75.7769 61.0759 75.6351 61.2509 75.6351H64.265C67.2819 75.6351 70.1129 74.0546 71.5891 71.4234C73.0514 68.8176 73.0101 65.7334 71.4765 63.1645V63.1645Z" fill="#00B965"/>
<path d="M49.1028 70.8864H45.6947C44.3851 70.8864 43.149 70.1994 42.5276 69.0472C41.9383 67.954 41.9653 66.6709 42.6055 65.5998L44.6842 62.1188C44.7753 61.9665 44.9734 61.9185 45.1235 62.0123L47.2382 63.3301C47.7155 63.6275 48.3297 63.2622 48.2961 62.701L47.7541 53.6645C47.7255 53.1883 47.2354 52.8831 46.7956 53.0669L38.4435 56.559C37.9247 56.7764 37.8673 57.4888 38.3447 57.7863L40.5559 59.1648C40.7022 59.2558 40.7485 59.4479 40.6602 59.5957L38.5284 63.1651C36.9943 65.7333 36.9535 68.8176 38.4153 71.4239C39.892 74.0551 42.723 75.635 45.7399 75.635H49.1028C49.445 75.635 49.722 75.358 49.722 75.0159V71.5056C49.722 71.1635 49.445 70.8864 49.1028 70.8864V70.8864Z" fill="#00B965"/>
<path d="M67.155 50.38L64.9851 51.6791C64.835 51.7685 64.6408 51.7199 64.5508 51.5698L62.1476 47.5452C60.651 45.0393 57.9718 43.4323 55.0536 43.4147C52.1035 43.397 49.4359 44.9013 47.9249 47.4315L46.9465 49.0694C46.7716 49.363 46.867 49.7432 47.1606 49.9181L50.1742 51.7182C50.4678 51.8937 50.848 51.7977 51.0235 51.5041L52.0019 49.8663C52.6542 48.7736 53.7634 48.1511 55.0393 48.1633C56.2732 48.1754 57.4028 48.8613 58.0352 49.9209L60.4771 54.0089C60.5665 54.159 60.5174 54.3533 60.3679 54.4432L58.1627 55.7632C57.6798 56.0519 57.7251 56.7654 58.24 56.9916L66.527 60.6344C66.964 60.8258 67.4596 60.5295 67.4966 60.0538L68.2018 51.029C68.2454 50.4678 67.6378 50.0914 67.155 50.38Z" fill="#00B965"/>
<path d="M67.1551 50.38L66.3632 50.854L65.7027 59.3149C65.6723 59.7023 65.3379 59.9705 64.9786 59.9534L66.5271 60.6338C66.9636 60.8258 67.4592 60.5289 67.4967 60.0532L68.2014 51.0284C68.2456 50.4677 67.638 50.0914 67.1551 50.38V50.38Z" fill="#00A855"/>
<path d="M71.4766 63.1645L70.7173 61.8936C70.5418 61.6 70.1616 61.504 69.868 61.6795L69.4734 61.9151L69.6826 62.2656C71.2161 64.8344 71.2575 67.9186 69.7952 70.5244C68.319 73.1556 65.488 74.7361 62.4711 74.7361H59.4575C59.2826 74.7361 59.1407 74.8779 59.1407 75.0528V77.6018C59.1407 77.9147 58.9448 78.1542 58.6915 78.2497L59.841 79.0658C60.2996 79.3914 60.9348 79.0631 60.9348 78.5008V75.9518C60.9348 75.7769 61.0766 75.635 61.2515 75.635H64.2651C67.2821 75.635 70.113 74.0546 71.5892 71.4234C73.0516 68.8176 73.0102 65.7333 71.4766 63.1645V63.1645Z" fill="#00A855"/>
<path d="M46.344 61.7419C46.365 62.0962 46.1283 62.3721 45.8308 62.4527L47.238 63.3301C47.7154 63.6275 48.3296 63.2622 48.2959 62.701L47.754 53.6646C47.7258 53.1883 47.2358 52.8832 46.7954 53.0669L45.8474 53.4632L46.344 61.7419Z" fill="#00A855"/>
<path d="M49.1027 70.8865H47.7694V74.0568C47.7694 74.3989 47.4924 74.676 47.1503 74.676H43.7879C42.8327 74.676 41.8967 74.5176 41.016 74.2174C42.3912 75.1307 44.0357 75.6351 45.7398 75.6351H49.1027C49.4448 75.6351 49.7219 75.358 49.7219 75.0159V71.5056C49.7219 71.1635 49.4448 70.8865 49.1027 70.8865Z" fill="#00A855"/>
</svg>
