<svg  viewBox="0 0 155 155" fill="none" xmlns="http://www.w3.org/2000/svg">
<path d="M66.8125 40.0938L88.1875 40.0938L88.1875 64.1406L66.8125 64.1406L66.8125 40.0938Z" fill="#57A4FF"/>
<path d="M92.1953 80.1719L136.281 120.25L136.281 40.0938L92.1953 80.1719Z" fill="#68AE8B"/>
<path d="M18.7188 40.0938L18.7187 120.25L62.8047 80.1719L18.7188 40.0938Z" fill="#68AE8B"/>
<path d="M81.0937 90.2635C80.1101 91.1572 78.8289 91.6524 77.5 91.6524C76.1711 91.6524 74.8899 91.1572 73.9063 90.2635L62.8047 80.1719L18.7187 120.25L136.281 120.25L92.1953 80.1719L81.0937 90.2635Z" fill="#FFA733"/>
<path d="M88.1875 40.0938L18.7188 40.0938L62.8047 80.1719L73.9063 90.2635C74.8899 91.1572 76.1711 91.6524 77.5 91.6524C78.8289 91.6524 80.1101 91.1572 81.0937 90.2635L92.1953 80.1719L136.281 40.0938L88.1875 40.0938Z" fill="#9AD1B3"/>
<path d="M125.594 49.8087L125.594 88.1875C125.594 91.1863 124.961 94.1514 123.737 96.8887C122.512 99.6259 120.723 102.074 118.487 104.072L136.281 120.25L136.281 40.0938L125.594 49.8087Z" fill="#549876"/>
<path d="M18.7188 109.562L18.7187 120.25L30.475 109.563L18.7188 109.562Z" fill="#549876"/>
<path d="M104.219 109.562L30.475 109.562L18.7187 120.25L136.281 120.25L118.487 104.072C114.576 107.607 109.491 109.564 104.219 109.562Z" fill="#4F8569"/>
<path d="M81.0936 90.2635C80.1101 91.1572 78.8289 91.6524 77.5 91.6524C76.1711 91.6524 74.8898 91.1572 73.9063 90.2635L62.8047 80.1719L30.475 109.562L104.219 109.563C109.491 109.564 114.576 107.607 118.487 104.072L92.1953 80.1719L81.0936 90.2635Z" fill="#549876"/>
<path d="M151.853 90.3998L136.281 74.8281L136.281 91.7678L131.402 86.889C130.4 85.8872 129.041 85.3244 127.624 85.3244C126.207 85.3244 124.848 85.8872 123.846 86.889C122.845 87.8911 122.282 89.25 122.282 90.667C122.282 92.084 122.845 93.4429 123.846 94.445L132.851 103.449C133.798 104.445 134.318 105.773 134.299 107.147C134.281 108.522 133.725 109.835 132.752 110.805C132.26 111.274 131.813 111.787 131.416 112.339C129.803 114.603 129.138 117.407 129.561 120.154L129.521 120.25L114.906 120.25L114.906 121.626C114.906 125.877 116.595 129.954 119.601 132.96L121.356 134.716C122.358 135.717 122.922 137.076 122.922 138.494L122.922 154.984L154.984 154.984L154.984 97.9586C154.984 96.5547 154.708 95.1646 154.171 93.8677C153.633 92.5707 152.846 91.3923 151.853 90.3998Z" fill="#FFBCAB"/>
<path d="M3.14706 90.3998L18.7188 74.8281L18.7187 91.7678L23.5976 86.889C24.5997 85.8872 25.9587 85.3244 27.3756 85.3244C28.7926 85.3244 30.1516 85.8872 31.1537 86.889C32.1555 87.8911 32.7182 89.25 32.7182 90.667C32.7182 92.084 32.1555 93.4429 31.1537 94.445L22.1494 103.449C21.2021 104.445 20.6821 105.773 20.7006 107.147C20.7191 108.522 21.2745 109.835 22.2483 110.805C22.7402 111.274 23.1874 111.787 23.5842 112.339C25.1968 114.603 25.8621 117.407 25.4385 120.154L25.4786 120.25L40.0937 120.25V121.626C40.0936 125.877 38.4049 129.954 35.3993 132.96L33.6438 134.716C32.6416 135.717 32.0784 137.076 32.0781 138.494L32.0781 154.984L0.015625 154.984L0.015625 97.9586C0.0155738 96.5547 0.292096 95.1646 0.829397 93.8677C1.3667 92.5707 2.15425 91.3923 3.14706 90.3998Z" fill="#FFBCAB"/>
<path d="M134.224 128.367L131.739 125.257C130.588 123.807 129.836 122.081 129.559 120.25H126.887C127.164 122.08 127.914 123.807 129.065 125.257L133.609 130.938L136.281 130.938L134.224 128.367Z" fill="#FF9478"/>
<path d="M20.7761 128.367L23.2636 125.257C24.4137 123.807 25.1644 122.08 25.4412 120.25H28.1131C27.8363 122.08 27.0856 123.807 25.9355 125.257L21.3906 130.938H18.7187L20.7761 128.367Z" fill="#FF9478"/>
<path d="M86.7344 64.125C87.8389 64.125 88.7344 63.2296 88.7344 62.125L88.7344 40.0781L88.7344 31.3906C88.7344 30.2861 89.6298 29.3906 90.7344 29.3906L97.8644 29.3906C99.5531 29.3906 100.482 27.4269 99.4102 26.1216L79.5177 1.88938C78.7159 0.912647 77.2205 0.915091 76.4219 1.89443L56.6616 26.1267C55.5963 27.4331 56.5259 29.3906 58.2116 29.3906L65.3594 29.3906C66.4639 29.3906 67.3594 30.2861 67.3594 31.3906L67.3594 40.0781L67.3594 62.125C67.3594 63.2296 68.2548 64.125 69.3594 64.125L86.7344 64.125Z" fill="#65B98F"/>
</svg>
