<svg width="69" height="69" viewBox="0 0 69 69" fill="none" xmlns="http://www.w3.org/2000/svg">
<g clip-path="url(#clip0)">
<path d="M46.1342 15.0603H41.9967V6.14131C41.9967 5.03629 41.0979 4.13754 39.9929 4.13754H28.4382C27.3332 4.13754 26.4344 5.03629 26.4344 6.14131V15.0603H22.2969V6.14131C22.2969 2.75522 25.0516 -2.28882e-05 28.4382 -2.28882e-05H39.9929C43.379 -2.28882e-05 46.1342 2.75522 46.1342 6.14131V15.0603Z" fill="#00B965"/>
<path d="M41.559 0.203094C42.8974 1.33057 43.7497 3.01735 43.7497 4.89996V15.0603H46.1341V6.14128C46.1341 3.29622 44.1889 0.89765 41.559 0.203094Z" fill="#00A855"/>
<path d="M51.1443 68.4487H17.2866C14.0154 68.4487 11.3635 65.7968 11.3635 62.5256V13.8483C11.3635 12.8942 12.1369 12.1208 13.091 12.1208H55.3399C56.294 12.1208 57.0674 12.8942 57.0674 13.8483V62.5256C57.0674 65.7968 54.4155 68.4487 51.1443 68.4487Z" fill="#92DFB7"/>
<path d="M55.285 12.1208H48.1891V58.0784C48.1891 61.453 45.4537 64.1884 42.0791 64.1884H11.6492C12.4335 66.6585 14.7439 68.4487 17.4735 68.4487H50.9574C54.332 68.4487 57.0674 65.7128 57.0674 62.3387V13.9031C57.0674 12.9187 56.2694 12.1208 55.285 12.1208Z" fill="#6FD6A2"/>
<path d="M49.6675 41.794L48.9489 40.5913C48.7828 40.3135 48.423 40.2226 48.1452 40.3887L45.2933 42.0922C45.0155 42.2582 44.9247 42.618 45.0907 42.8959L45.8093 44.0985C46.4146 45.1122 46.4407 46.3258 45.8829 47.3603C45.2949 48.4513 44.1246 49.1014 42.8854 49.1014H39.9907C39.8252 49.1014 39.6915 48.9672 39.6915 48.8017V46.3895C39.6915 45.8574 39.0904 45.5467 38.6564 45.8548L31.6707 50.8138C31.3025 51.0749 31.3025 51.6217 31.6707 51.8828L38.6564 56.8418C39.0904 57.1499 39.6915 56.8392 39.6915 56.3071V53.8949C39.6915 53.7294 39.8252 53.5952 39.9907 53.5952H42.8431C45.6981 53.5952 48.3771 52.0995 49.774 49.6096C51.1579 47.1436 51.1187 44.2249 49.6675 41.794Z" fill="#00B965"/>
<path d="M28.4947 49.1014H25.2695C24.0302 49.1014 22.8605 48.4513 22.2724 47.3609C21.7147 46.3263 21.7403 45.1122 22.3461 44.0985L24.3133 40.8044C24.3994 40.6602 24.5869 40.6148 24.729 40.7036L26.7301 41.9506C27.1818 42.2321 27.7631 41.8864 27.7312 41.3553L27.2184 32.8039C27.1912 32.3532 26.7275 32.0644 26.3113 32.2383L18.4075 35.543C17.9166 35.7487 17.8623 36.4229 18.314 36.7044L20.4065 38.0089C20.5449 38.0951 20.5888 38.2768 20.5052 38.4168L18.4879 41.7945C17.0361 44.2249 16.9975 47.1436 18.3808 49.6101C19.7783 52.1 22.4573 53.5951 25.3123 53.5951H28.4947C28.8185 53.5951 29.0806 53.333 29.0806 53.0092V49.6874C29.0806 49.3636 28.8185 49.1014 28.4947 49.1014Z" fill="#00B965"/>
<path d="M45.5779 29.6957L43.5245 30.925C43.3825 31.0096 43.1987 30.9636 43.1136 30.8216L40.8393 27.013C39.423 24.6416 36.8876 23.1209 34.1261 23.1042C31.3343 23.0875 28.8099 24.511 27.38 26.9054L26.4541 28.4554C26.2886 28.7332 26.3789 29.093 26.6568 29.2586L29.5086 30.962C29.7864 31.1281 30.1463 31.0372 30.3123 30.7594L31.2382 29.2095C31.8555 28.1755 32.9052 27.5864 34.1125 27.5979C35.2802 27.6094 36.3492 28.2585 36.9477 29.2612L39.2585 33.1298C39.3431 33.2718 39.2966 33.4557 39.1551 33.5408L37.0683 34.7899C36.6114 35.0631 36.6542 35.7383 37.1414 35.9524L44.9836 39.3996C45.3972 39.5808 45.8662 39.3004 45.9012 38.8502L46.5686 30.3098C46.6098 29.7787 46.0349 29.4225 45.5779 29.6957Z" fill="#00B965"/>
<path d="M45.578 29.6956L44.8286 30.1442L44.2035 38.1509C44.1747 38.5175 43.8583 38.7713 43.5183 38.7551L44.9837 39.399C45.3967 39.5808 45.8657 39.2998 45.9012 38.8497L46.5681 30.3092C46.6099 29.7787 46.0349 29.4225 45.578 29.6956Z" fill="#00A855"/>
<path d="M49.6676 41.7939L48.949 40.5913C48.7829 40.3134 48.4231 40.2226 48.1453 40.3886L47.7719 40.6116L47.9698 40.9432C49.4211 43.3742 49.4602 46.2929 48.0764 48.7588C46.6794 51.2488 44.0004 52.7444 41.1454 52.7444H38.2936C38.128 52.7444 37.9938 52.8786 37.9938 53.0442V55.4563C37.9938 55.7524 37.8084 55.9791 37.5687 56.0694L38.6565 56.8418C39.0905 57.1499 39.6916 56.8392 39.6916 56.307V53.8949C39.6916 53.7293 39.8258 53.5951 39.9913 53.5951H42.8432C45.6982 53.5951 48.3772 52.0995 49.7741 49.6095C51.158 47.1436 51.1188 44.2249 49.6676 41.7939Z" fill="#00A855"/>
<path d="M25.884 40.4477C25.9038 40.783 25.6798 41.0441 25.3983 41.1203L26.73 41.9507C27.1817 42.2321 27.7629 41.8864 27.7311 41.3553L27.2183 32.8039C27.1916 32.3533 26.7279 32.0645 26.3112 32.2384L25.414 32.6133L25.884 40.4477Z" fill="#00A855"/>
<path d="M28.4946 49.1014H27.2329V52.1016C27.2329 52.4254 26.9707 52.6875 26.6469 52.6875H23.465C22.5611 52.6875 21.6754 52.5376 20.8419 52.2536C22.1433 53.1178 23.6995 53.5951 25.3121 53.5951H28.4946C28.8183 53.5951 29.0805 53.333 29.0805 53.0092V49.6874C29.0805 49.3636 28.8183 49.1014 28.4946 49.1014Z" fill="#00A855"/>
</g>
<defs>
<clipPath id="clip0">
<rect width="68.4487" height="68.4487" fill="white"/>
</clipPath>
</defs>
</svg>
