<svg width="58" height="58" viewBox="0 0 58 58" fill="none" xmlns="http://www.w3.org/2000/svg">
<g filter="url(#filter0_d)">
<path d="M4 25C4 11.1929 15.1929 0 29 0V0C42.8071 0 54 11.1929 54 25V25C54 38.8071 42.8071 50 29 50V50C15.1929 50 4 38.8071 4 25V25Z" fill="#FAFAFA"/>
</g>
<path fill-rule="evenodd" clip-rule="evenodd" d="M36 17H31.82C31.4 15.84 30.3 15 29 15C27.7 15 26.6 15.84 26.18 17H22C20.9 17 20 17.9 20 19V33C20 34.1 20.9 35 22 35H36C37.1 35 38 34.1 38 33V19C38 17.9 37.1 17 36 17ZM29 17C29.55 17 30 17.45 30 18C30 18.55 29.55 19 29 19C28.45 19 28 18.55 28 18C28 17.45 28.45 17 29 17ZM25 31H30C30.55 31 31 30.55 31 30C31 29.45 30.55 29 30 29H25C24.45 29 24 29.45 24 30C24 30.55 24.45 31 25 31ZM33 27H25C24.45 27 24 26.55 24 26C24 25.45 24.45 25 25 25H33C33.55 25 34 25.45 34 26C34 26.55 33.55 27 33 27ZM25 23H33C33.55 23 34 22.55 34 22C34 21.45 33.55 21 33 21H25C24.45 21 24 21.45 24 22C24 22.55 24.45 23 25 23Z" fill="#65B98F"/>
<defs>
<filter id="filter0_d" x="0" y="0" width="58" height="58" filterUnits="userSpaceOnUse" color-interpolation-filters="sRGB">
<feFlood flood-opacity="0" result="BackgroundImageFix"/>
<feColorMatrix in="SourceAlpha" type="matrix" values="0 0 0 0 0 0 0 0 0 0 0 0 0 0 0 0 0 0 127 0"/>
<feOffset dy="4"/>
<feGaussianBlur stdDeviation="2"/>
<feColorMatrix type="matrix" values="0 0 0 0 0 0 0 0 0 0 0 0 0 0 0 0 0 0 0.2 0"/>
<feBlend mode="normal" in2="BackgroundImageFix" result="effect1_dropShadow"/>
<feBlend mode="normal" in="SourceGraphic" in2="effect1_dropShadow" result="shape"/>
</filter>
</defs>
</svg>
