<svg width="81" height="81" viewBox="0 0 81 81" fill="none" xmlns="http://www.w3.org/2000/svg">
<g clip-path="url(#clip0)">
<path d="M55.2164 23.6597L47.3818 19.5708L51.4744 14.1228C52.2167 13.1346 53.565 12.8293 54.6606 13.401L56.1156 14.1604C57.2111 14.7321 57.7316 16.0131 57.3456 17.187L55.2164 23.6597Z" fill="#A67E74"/>
<path d="M0.180463 56.3819C3.04995 63.3431 9.83558 67.8854 17.3649 67.8854H24.1876C29.4368 67.8854 34.3939 65.4695 37.6282 61.3352C38.5878 60.1085 40.4217 60.0439 41.4654 61.2001C45.3072 65.4564 50.7723 67.8856 56.5061 67.8856H59.1961C67.8775 67.8856 75.9588 63.4565 80.6296 56.1387C81.8479 54.23 79.8435 51.9035 77.7755 52.8258L72.7676 55.0594C71.027 55.8357 69.1425 56.2369 67.2368 56.2369C60.57 56.2369 54.8894 51.3964 53.8315 44.8141C53.4559 42.4769 53.7286 40.0818 54.6201 37.8889L56.7022 32.7676C59.4257 26.0686 54.2854 18.8041 47.062 19.1431C43.7241 19.2998 40.69 21.1291 38.9933 24.0079L23.8941 49.6257C21.4306 53.8055 16.9405 56.3709 12.0886 56.3709C9.75965 56.3709 7.46934 55.7775 5.43359 54.6464L3.39973 53.5165C1.51111 52.4673 -0.642824 54.3847 0.180463 56.3819Z" fill="#FADA6D"/>
<path d="M41.4652 61.2C45.307 65.4563 50.7723 67.8855 56.5059 67.8855H59.196C66.5874 67.8855 73.5423 64.673 78.3292 59.2024C39.6842 74.2003 34.4815 39.6176 39.6354 23.054C39.4051 23.3577 39.1893 23.6747 38.9931 24.0076L23.8939 49.6254C21.4304 53.8053 16.9403 56.3707 12.0884 56.3707C9.75948 56.3707 7.46918 55.7773 5.43342 54.6461L3.39957 53.5162C1.51126 52.4672 -0.642833 54.3846 0.180455 56.3818C3.04994 63.343 9.83557 67.8853 17.3649 67.8853H24.1876C29.4367 67.8853 34.3939 65.4694 37.6282 61.3351C38.5877 60.1084 40.4217 60.0438 41.4652 61.2Z" fill="#F2C55A"/>
<path d="M39.3918 57.6339C38.7366 57.6339 38.2053 57.1027 38.2053 56.4474C38.2053 53.1372 39.181 45.3476 42.8375 37.1503C43.1047 36.5518 43.8062 36.2832 44.4045 36.5501C45.0028 36.8171 45.2716 37.5186 45.0047 38.1171C41.5107 45.9502 40.5784 53.3248 40.5784 56.4476C40.5784 57.1027 40.0471 57.6339 39.3918 57.6339Z" fill="#EBAC40"/>
<path d="M21.7518 67.8854C22.1486 67.3441 22.4198 66.6527 22.5835 65.8161C23.0456 63.4542 21.3511 61.6057 18.4245 61.7598C15.4979 61.9139 14.9844 62.8381 13.9575 63.865C13.3538 64.4687 13.1948 66.279 14.356 67.638C15.3405 67.7994 16.3456 67.8854 17.3652 67.8854H21.7518Z" fill="#EBAC40"/>
<path d="M61.4649 55.2952C61.4971 55.1879 61.5228 55.0854 61.5452 54.985C59.7838 54.1706 58.2207 52.9883 56.9589 51.5275C54.5897 51.2065 52.5987 52.0592 53.3642 54.2017C54.1003 56.2621 52.6039 57.9068 57.1503 57.6755C59.6343 57.5493 60.7371 57.708 61.4649 55.2952Z" fill="#EBAC40"/>
<path d="M31.462 48.227C31.1584 48.227 30.8547 48.111 30.623 47.8794C30.1597 47.4161 30.1597 46.6648 30.623 46.2014L32.2669 44.5575C32.7303 44.0941 33.4816 44.0941 33.9448 44.5575C34.4082 45.0209 34.4082 45.7722 33.9448 46.2356L32.3009 47.8794C32.0692 48.1112 31.7656 48.227 31.462 48.227Z" fill="#EBAC40"/>
<path d="M30.6899 53.3074C30.3863 53.3074 30.0826 53.1916 29.851 52.9598C29.3876 52.4965 29.3876 51.7451 29.851 51.2818L31.4452 49.6876C31.9085 49.2242 32.6598 49.2242 33.1231 49.6876C33.5864 50.1509 33.5864 50.9022 33.1231 51.3655L31.5289 52.9597C31.2972 53.1914 30.9935 53.3074 30.6899 53.3074Z" fill="#EBAC40"/>
</g>
<defs>
<clipPath id="clip0">
<rect width="81" height="81" fill="white"/>
</clipPath>
</defs>
</svg>
