<svg width="145" height="145" viewBox="0 0 145 145" fill="none" xmlns="http://www.w3.org/2000/svg">
<g clip-path="url(#clip0)">
<path d="M8.08856 105.811C2.91982 95.8365 0 84.5092 0 72.5003C0 32.7029 31.8139 0.483693 71.6082 0.00536289C112.058 -0.480897 145 32.1625 145 72.5C145 84.4172 142.125 95.6632 137.03 105.581C136.411 106.785 135.063 107.425 133.745 107.118C115.14 102.777 94.3862 100.352 72.5 100.352C50.5317 100.352 29.7046 102.795 11.0458 107.167C9.86708 107.443 8.64563 106.885 8.08856 105.811Z" fill="#B4DCC6"/>
<path d="M134.805 69.0503C134.805 98.1423 111.221 121.726 82.1289 121.726C53.0369 121.726 29.4531 98.1423 29.4531 69.0503C29.4531 39.9583 53.0369 16.3745 82.1289 16.3745C111.221 16.3745 134.805 39.9583 134.805 69.0503Z" fill="#CDE8D8"/>
<path d="M109.98 66.0402C109.217 67.6204 107.78 68.6567 106.181 68.9707C105.261 69.1511 104.72 70.1027 105.021 70.9897C105.677 72.9192 105.604 75.0976 104.648 77.0774L98.6167 89.5607C96.6841 93.561 91.8742 95.2373 87.8739 93.3047L72.3524 85.8058C68.3522 83.8732 66.6759 79.0635 68.6085 75.063L74.6396 62.5797C75.5962 60.5998 77.2575 59.1892 79.1768 58.5036C80.0589 58.1883 80.4676 57.1728 80.0377 56.3402C79.2898 54.8921 79.2085 53.1224 79.972 51.5421C82.4257 46.4637 88.3565 44.1947 93.5227 46.2131L94.4046 44.3879C95.0851 42.9795 96.7784 42.3893 98.1868 43.0698L105.297 46.5048C106.705 47.1853 107.295 48.8786 106.615 50.287L105.733 52.1125C110.525 54.9052 112.434 60.9618 109.98 66.0402Z" fill="#C8E2FD"/>
<path d="M106.534 68.8886C105.455 69.1772 104.826 70.2831 105.135 71.3561C105.663 73.1921 105.543 75.2215 104.647 77.0771L98.6156 89.5604C96.683 93.5607 91.8731 95.2369 87.8728 93.3044L77.3754 88.2328C75.8206 85.755 75.5365 82.5571 76.9027 79.7293L83.4931 66.0883C84.5599 63.8804 86.4285 62.3202 88.5803 61.5893C89.4812 61.2831 89.9125 60.2259 89.4562 59.3913C88.5797 57.7876 88.4645 55.7986 89.32 54.0275C92.0011 48.4781 98.4822 45.9987 104.127 48.2043L105.014 46.3694L105.295 46.5053C106.704 47.1856 107.294 48.8791 106.614 50.2875L105.732 52.113C110.524 54.9054 112.432 60.9623 109.979 66.0407C109.273 67.5029 107.989 68.4994 106.534 68.8886Z" fill="#FFF5F5"/>
<path d="M106.329 49.5566L95.1535 44.1573C94.2963 43.7432 93.9372 42.7124 94.3512 41.8554C94.7653 40.9982 95.7961 40.6391 96.6534 41.0531L107.829 46.4524C108.686 46.8664 109.045 47.8973 108.631 48.7542C108.217 49.6115 107.186 49.9709 106.329 49.5566ZM67.0332 58.838C66.7199 57.9391 65.7372 57.4642 64.838 57.7774L53.118 61.8617C52.2191 62.175 51.7441 63.1577 52.0574 64.0568C52.3706 64.9557 53.3533 65.4307 54.2525 65.1174L65.9726 61.0331C66.8714 60.7199 67.3464 59.7369 67.0332 58.838Z" fill="#44775D"/>
<path d="M83.9687 35.4628C83.9687 36.2447 83.3346 36.8788 82.5527 36.8788C78.6487 36.8788 75.4726 33.7027 75.4726 29.7987C75.4726 29.0168 76.1067 28.3827 76.8886 28.3827C77.6706 28.3827 78.3047 29.0168 78.3047 29.7987C78.3047 32.1411 80.2103 34.0468 82.5527 34.0468C83.3349 34.0468 83.9687 34.6806 83.9687 35.4628ZM121.779 51.6668C121.226 51.1137 120.329 51.1137 119.777 51.6668C119.224 52.2199 119.224 53.1165 119.777 53.6693C121.433 55.3258 121.433 58.0207 119.777 59.6769C119.224 60.23 119.224 61.1266 119.777 61.6794C120.329 62.2323 121.226 62.2323 121.779 61.6794C124.54 58.9188 124.54 54.4272 121.779 51.6668ZM40.0938 60.7429C39.3118 60.7429 38.6777 61.377 38.6777 62.1589C38.6777 64.5013 36.7721 66.407 34.4297 66.407C33.6478 66.407 33.0137 67.041 33.0137 67.823C33.0137 68.6049 33.6478 69.239 34.4297 69.239C38.3336 69.239 41.5098 66.0629 41.5098 62.1589C41.5098 61.377 40.8757 60.7429 40.0938 60.7429Z" fill="#E9F3FE"/>
<path d="M86.5668 0.9779L89.3872 4.23474C90.1365 5.09992 90.2914 6.33129 89.7794 7.35535L88.0921 10.7303C87.8955 11.1237 87.793 11.5572 87.793 11.9968V14.9511C87.793 16.17 87.0131 17.2525 85.8565 17.6379L81.349 19.1403C80.1375 19.5441 78.8056 19.087 78.097 18.0245L74.2842 12.3055C73.8671 11.6799 73.7158 10.9138 73.8642 10.1766L75.4524 2.27412C75.7181 0.951562 76.8801 0 78.229 0H84.426C85.2476 0 86.029 0.356836 86.5668 0.9779Z" fill="#65B98F"/>
<path d="M83.0345 18.5784L81.3491 19.14C80.1376 19.5439 78.8057 19.0868 78.0971 18.0245L74.2843 12.3055C73.8672 11.6799 73.716 10.9138 73.8641 10.1764L75.4523 2.27388C75.7179 0.951319 76.8799 -0.000244141 78.2288 -0.000244141H81.3741L78.8068 8.52275C78.5347 9.42589 78.6332 10.4001 79.0801 11.2307L83.0345 18.5784Z" fill="#80C5A1"/>
<path d="M8.03171 59.7411L8.34012 55.4441C8.42196 54.3022 9.18321 53.3221 10.2693 52.9601L13.849 51.767C14.2661 51.6279 14.6451 51.3937 14.956 51.0828L17.0449 48.9939C17.907 48.1318 19.2236 47.9183 20.3139 48.4634L24.5637 50.5883C25.7059 51.1595 26.3247 52.4246 26.0743 53.6766L24.7263 60.4166C24.5787 61.154 24.144 61.8026 23.5178 62.2189L16.807 66.6839C15.6839 67.4312 14.1897 67.2826 13.2359 66.3285L8.85385 61.9464C8.27272 61.3656 7.9728 60.5607 8.03171 59.7411Z" fill="#C8E2FD"/>
<path d="M13.6359 59.8592C12.9169 59.1402 12.5456 58.1441 12.6184 57.1297L12.9826 52.0556L13.8489 51.7667C14.2661 51.6276 14.645 51.3934 14.9559 51.0825L17.0448 48.9936C17.9069 48.1315 19.2235 47.918 20.3139 48.4628L24.5636 50.5877C25.7058 51.1589 26.3246 52.4237 26.0742 53.676L24.7262 60.416C24.5786 61.1535 24.1439 61.802 23.518 62.2183L19.0009 65.2237L13.6359 59.8592Z" fill="#E9F3FE"/>
<path d="M106.88 30.2843C105.774 29.1784 105.774 27.3852 106.88 26.2793C107.986 25.1734 109.779 25.1734 110.885 26.2793L117.609 28.147L115.529 29.825L117.196 31.7791L115.529 32.9436L106.88 30.2843Z" fill="#FFF5F5"/>
<path d="M50.0856 4.24463L64.2053 47.1743C64.4667 47.9686 64.0897 48.8327 63.3299 49.1819L45.3822 57.4293C44.6223 57.7785 43.7215 57.5015 43.2887 56.7859L19.9092 18.1117L50.0856 4.24463Z" fill="#65B98F"/>
<path d="M50.0845 4.24463L58.9368 31.1597C60.5664 36.1143 58.2169 41.5028 53.4778 43.6807C48.7384 45.8585 43.1194 44.1318 40.421 39.6682L25.7627 15.421L50.0845 4.24463Z" fill="#80C5A1"/>
<path d="M52.1163 5.12086L19.2509 20.2232C18.4259 20.6024 17.4497 20.2408 17.0705 19.4158C16.6913 18.5908 17.053 17.6146 17.8779 17.2354L50.7434 2.13306C51.5683 1.75385 52.5445 2.11522 52.9237 2.94048C53.303 3.76545 52.9413 4.74165 52.1163 5.12086ZM56.502 19.3895C56.1228 18.5645 55.1466 18.2031 54.3216 18.5821L28.0293 30.6641C27.2044 31.0433 26.8427 32.0195 27.2219 32.8445C27.6011 33.6697 28.5773 34.0311 29.4023 33.6519L55.6946 21.5699C56.5196 21.1907 56.8812 20.2144 56.502 19.3895ZM55.25 12.7274C54.8708 11.9022 53.8946 11.5408 53.0696 11.92L23.7895 25.375C22.9645 25.7542 22.6029 26.7304 22.9821 27.5554C23.3613 28.3806 24.3375 28.742 25.1625 28.3628L54.4426 14.9078C55.2675 14.5286 55.6292 13.5524 55.25 12.7274Z" fill="#44775D"/>
<path d="M137.062 105.52C125.049 128.959 100.648 145 72.5003 145C71.7184 145 70.9393 144.988 70.1636 144.963C27.6497 143.617 28.4438 79.8551 70.977 79.4337C71.4836 79.4286 71.9914 79.426 72.5006 79.426C100.648 79.426 125.049 87.0694 137.062 105.52Z" fill="#65B98F"/>
<path d="M81.3651 141.437C83.5939 142.165 85.87 142.787 88.188 143.298C83.1363 144.413 77.8865 145 72.4997 145C44.3519 145 19.9508 128.959 7.93848 105.52C19.9505 87.0694 44.3519 79.4258 72.4997 79.4258C77.8865 79.4258 83.1363 79.7056 88.188 80.2879C87.9745 80.3125 87.7615 80.3377 87.5489 80.3632C80.9148 81.1638 74.7996 81.532 70.4935 85.0898C53.1737 99.4001 55.8151 133.1 81.3651 141.437Z" fill="#5AA780"/>
<path d="M107.205 95.9359C106.734 96.5601 105.846 96.6844 105.222 96.2135C97.5129 90.397 90.8973 84.2062 86.2434 78.5546H89.9837C94.3923 83.55 100.291 88.9453 106.927 93.9526C107.552 94.4236 107.676 95.3114 107.205 95.9359ZM54.9347 78.5546H51.1942C46.7856 83.55 40.8873 88.9453 34.2507 93.9526C33.6265 94.4236 33.5022 95.3114 33.9732 95.9359C34.4441 96.5601 35.3323 96.6844 35.9564 96.2135C43.6652 90.397 50.2808 84.2059 54.9347 78.5546ZM48.431 104.884C48.41 105.44 48.713 105.934 49.1718 106.183C49.357 106.283 49.5677 106.344 49.7926 106.352C50.574 106.382 51.2316 105.772 51.261 104.99C51.5046 98.5405 54.5838 88.7726 59.5011 78.5543H56.359C51.5751 88.7292 48.6822 98.2301 48.431 104.884ZM67.2855 78.5546C70.3364 91.4692 71.2617 103.774 69.6907 110.971C69.5239 111.735 70.0082 112.49 70.772 112.657C70.9918 112.704 71.211 112.698 71.4154 112.647C71.9218 112.521 72.3387 112.119 72.4574 111.575C74.1115 103.997 73.2605 91.783 70.1946 78.5546H67.2855ZM84.8192 78.5546H81.677C86.5943 88.7729 89.6736 98.5408 89.9171 104.991C89.9466 105.772 90.6042 106.382 91.3855 106.352C91.6104 106.344 91.8211 106.283 92.0063 106.183C92.4651 105.934 92.7681 105.44 92.7472 104.884C92.496 98.2301 89.603 88.7292 84.8192 78.5546Z" fill="#44775D"/>
<path d="M62.5402 82.1196C62.5402 83.7234 61.2256 85.0173 59.6221 84.993C45.6862 84.7806 33.2142 84.2297 23.5417 83.4492C21.4446 83.2802 19.8408 81.5085 19.8725 79.4048L19.874 79.3187C19.9054 77.2618 21.4953 75.5674 23.5457 75.402C33.2712 74.6175 45.8258 74.065 59.8529 73.8552C61.3295 73.8331 62.5405 75.0242 62.5405 76.5008V82.1196H62.5402ZM125.129 79.4127L125.128 79.3187C125.096 77.2618 123.508 75.5674 121.458 75.402C116.487 75.001 110.778 74.6609 104.511 74.3958C102.621 74.3159 101.043 75.8274 101.043 77.7195V81.2887C101.043 83.0955 102.55 84.5382 104.355 84.4623C110.685 84.1963 116.449 83.8537 121.461 83.4492C123.557 83.2802 125.161 81.515 125.129 79.4127Z" fill="#65B98F"/>
<path d="M109.25 79.426C109.25 82.1255 107.124 84.3458 104.427 84.4594C94.8651 84.8624 84.009 85.0901 72.4997 85.0901C68.0089 85.0901 63.6173 85.0553 59.3636 84.9893C56.3902 84.9431 53.9836 82.5328 53.966 79.5591C53.9657 79.5079 53.9657 79.4566 53.9663 79.4054C53.9669 79.3564 53.9671 79.3076 53.9677 79.2587C53.968 79.2357 53.9683 79.2131 53.9686 79.1904C54.0175 76.257 56.4302 73.9087 59.3633 73.8628C63.6173 73.7965 68.0086 73.762 72.4997 73.762C84.009 73.762 94.8651 73.9897 104.427 74.3927C107.124 74.5062 109.25 76.7262 109.25 79.426Z" fill="#80C5A1"/>
</g>
<defs>
<clipPath id="clip0">
<rect width="145" height="145" fill="white"/>
</clipPath>
</defs>
</svg>
